<?xml version="1.0" encoding="UTF-8"?>
<!-- Generator: visioncortex VTracer 0.6.12 -->
<svg version="1.1" xmlns="http://www.w3.org/2000/svg" width="298" height="303">
<path d="M0 0 C3.577 2.662 5.181 5.368 7 9.312 C10.174 15.303 15.46 17.82 21.237 21.007 C24.094 22.616 26.851 24.38 29.625 26.125 C31.748 27.421 33.873 28.712 36 30 C36.984 30.606 37.967 31.212 38.98 31.836 C44.846 35.283 48.267 36.337 55 36 C58.52 37.023 61.38 38.38 64 41 C64.449 43.277 64.449 43.277 64.688 45.938 C64.774 46.813 64.86 47.688 64.949 48.59 C65 51 65 51 64 54 C63.01 54 62.02 54 61 54 C60.67 54.99 60.34 55.98 60 57 C59.01 57 58.02 57 57 57 C56.891 59.876 56.812 62.748 56.75 65.625 C56.733 66.029 56.733 66.029 56.648 68.074 C56.557 73.684 57.547 76.405 61 81 C61.723 84.445 61.608 87.823 59.965 91.004 C56.764 97.625 61.507 110.028 63 117 C63.134 117.788 63.268 118.575 63.406 119.387 C63.602 119.919 63.798 120.451 64 121 C64.99 121.33 65.98 121.66 67 122 C67 122.99 67 123.98 67 125 C67.99 125 68.98 125 70 125 C71.218 128.653 71.391 131.158 71 135 C69.387 137.996 68.713 139.176 66 141 C63.348 141.758 63.348 141.758 60.312 142.375 C53.249 143.867 49.266 147.236 44 152 C36.969 158.096 29.918 163.605 22.075 168.601 C13.478 174.123 13.478 174.123 12.125 179.438 C11.006 182.982 9.922 184.886 6.91 187.113 C3.037 188.911 -0.875 188.88 -5 188 C-7.824 185.81 -9.415 184.17 -11 181 C-13.031 180.485 -13.031 180.485 -15.715 180.105 C-16.209 180.031 -16.209 180.031 -18.709 179.655 C-19.242 179.578 -19.242 179.578 -21.938 179.188 C-30.564 177.864 -38.874 176.204 -47.201 173.575 C-51.602 172.221 -55.399 171.624 -60 172 C-63.187 173.937 -63.187 173.937 -66 176 C-69.594 177.391 -73.188 177.329 -77 177 C-81.939 174.385 -85.487 171.025 -88 166 C-88.096 164.377 -88.13 162.751 -88.125 161.125 C-88.126 160.693 -88.126 160.693 -88.133 158.508 C-88.01 156.18 -87.611 154.238 -87 152 C-85.836 140.358 -93.977 128.675 -98.93 118.574 C-99.191 118.036 -99.191 118.036 -100.516 115.312 C-100.993 114.339 -101.47 113.366 -101.962 112.363 C-103 110 -103 110 -103 108 C-104.176 107.959 -105.351 107.918 -106.562 107.875 C-111.693 107.229 -114.635 104.802 -118 101 C-120.571 97.184 -121.668 93.745 -121.48 89.086 C-120.244 83.719 -116.187 80.006 -112.125 76.562 C-109 75 -109 75 -105.207 75.117 C-103.077 74.882 -103.077 74.882 -101 74 C-98.211 70.507 -96.436 66.602 -94.562 62.562 C-94.035 61.487 -93.507 60.411 -92.963 59.303 C-91.615 56.547 -90.301 53.778 -89 51 C-88.835 50.67 -88.835 50.67 -88 49 C-87.01 49 -86.02 49 -85 49 C-83.91 43.624 -83.977 38.453 -84.215 33.01 C-84.345 26.85 -83.109 22.23 -78.812 17.688 C-74.647 15.188 -70.718 13.403 -65.812 14.48 C-62.533 15.668 -59.916 17.056 -57 19 C-51.513 18.581 -46.195 16.681 -40.938 15.125 C-34.771 13.305 -28.694 11.683 -22.375 10.5 C-17.281 9.397 -17.281 9.397 -14.875 6 C-14.586 5.01 -14.298 4.02 -14 3 C-10.18 -1.616 -5.518 -1.539 0 0 Z M-18.109 16.979 C-20.733 17.47 -23.249 18.129 -25.812 18.875 C-26.736 19.12 -27.659 19.365 -28.61 19.618 C-31.418 20.377 -34.21 21.18 -37 22 C-37.417 22.121 -37.417 22.121 -39.527 22.733 C-52.551 26.551 -52.551 26.551 -54 28 C-54.243 29.414 -54.469 30.832 -54.688 32.25 C-55.556 36.096 -56.588 38.664 -59.895 41.105 C-62.739 42.314 -65.43 42.459 -68.5 42.75 C-74.391 43.449 -74.391 43.449 -77.105 45.906 C-79.848 49.969 -81.779 54.238 -83 59 C-83.66 59 -84.32 59 -85 59 C-85.99 62.3 -86.98 65.6 -88 69 C-88.66 69 -89.32 69 -90 69 C-90.33 69.99 -90.66 70.98 -91 72 C-91.33 72.165 -91.33 72.165 -93 73 C-92.885 74.438 -92.758 75.876 -92.625 77.312 C-92.555 78.113 -92.486 78.914 -92.414 79.738 C-92 82 -92 82 -90 85 C-88.961 92.383 -89.68 97.284 -94 103.285 C-95 105 -95 105 -94.625 107.812 C-94.089 108.864 -93.552 109.916 -93 111 C-92.138 112.85 -91.284 114.705 -90.438 116.562 C-90.003 117.471 -89.569 118.38 -89.121 119.316 C-88.044 121.894 -87.443 124.25 -87 127 C-86.34 127 -85.68 127 -85 127 C-84.853 127.557 -84.706 128.114 -84.555 128.688 C-82.845 134.503 -80.744 140.003 -76 144 C-73.632 144.719 -71.617 144.935 -69.148 144.965 C-66.918 145.001 -65.112 145.285 -63 146 C-62 147.75 -62 147.75 -61 150 C-60.319 150.722 -59.639 151.444 -58.938 152.188 C-56.308 156.004 -56.198 159.456 -56 164 C-50.814 165.65 -45.678 166.586 -40.305 167.43 C-36.857 168.025 -33.472 168.78 -30.062 169.562 C-23.392 171.035 -16.815 171.672 -10 172 C-9.526 171.196 -9.051 170.391 -8.562 169.562 C-7 167 -7 167 -6 166 C-4.524 165.902 -3.042 165.87 -1.562 165.875 C-0.759 165.872 0.044 165.87 0.871 165.867 C3 166 3 166 5 167 C10.41 167.629 13.722 166.087 18 163 C18.66 162.319 19.32 161.639 20 160.938 C21.977 159.023 23.183 158.413 25.688 157.438 C26.781 156.963 27.874 156.489 29 156 C29.33 155.01 29.66 154.02 30 153 C31.305 152.073 32.62 151.159 33.977 150.309 C36.636 148.588 39.187 146.735 41.75 144.875 C42.694 144.192 43.637 143.509 44.609 142.805 C47 141 47 141 49 139 C48.836 136.828 48.836 136.828 48.375 134.25 C47.879 130.265 47.901 129.201 49.75 125.438 C52 123 52 123 55 122 C53.977 103.049 53.977 103.049 51 95 C48.965 93.324 47.616 92.84 45.035 92.422 C43 92 43 92 41.196 90.505 C37.17 87.746 32.425 88.446 27.688 88.438 C26.667 88.401 25.647 88.364 24.596 88.326 C19.367 88.296 15.942 88.468 11.895 91.973 C10.925 92.978 9.96 93.986 9 95 C4.825 97.088 -0.511 96.349 -4.938 95.312 C-7.749 93.524 -8.212 92.222 -9 89 C-9.503 83.565 -8.737 79.744 -6 75 C-2.603 72.472 -0.073 71.766 4.062 72.125 C7.578 72.756 10.172 73.738 13 76 C14.023 77.653 15.026 79.318 16 81 C20.704 82.568 25.447 82.267 30.375 82.312 C30.896 82.327 30.896 82.327 33.531 82.4 C41.19 82.464 41.19 82.464 45.145 80.199 C49.778 74.708 49.231 67.459 49.266 60.637 C49 58 49 58 47 55 C46.34 55 45.68 55 45 55 C44.37 52.031 44.008 49.563 44.062 46.5 C43 43 43 43 40.816 41.547 C39.049 40.695 37.258 39.891 35.445 39.141 C33 38 33 38 31.367 36.359 C30 35 30 35 27 35 C27 34.34 27 33.68 27 33 C24 31 24 31 21 31 C21 30.34 21 29.68 21 29 C18.512 27.62 16.013 26.272 13.5 24.938 C12.804 24.548 12.108 24.158 11.391 23.756 C6.091 20.983 2.849 20.661 -3 22 C-3.33 22.33 -3.66 22.66 -4 23 C-7.25 22.875 -7.25 22.875 -11 22 C-11.7 21.118 -12.4 20.237 -13.121 19.328 C-16 17 -16 17 -18.109 16.979 Z " fill="#47A03A" transform="translate(168,17)"/>
<path d="M0 0 C3 1.625 3 1.625 4 4.625 C4.495 4.79 4.495 4.79 7 5.625 C9.455 10.748 9.268 15.826 9.188 21.375 C9.187 22.237 9.186 23.1 9.186 23.988 C9.141 30.343 9.141 30.343 8 32.625 C4.647 32.882 1.293 33.101 -2.062 33.312 C-3.005 33.385 -3.948 33.458 -4.92 33.533 C-11.537 33.925 -16.425 33.619 -21.707 29.195 C-25.608 24.095 -27.518 20.222 -27.309 13.672 C-26.37 7.444 -22.289 3.625 -17.684 -0.211 C-12.433 -3.842 -5.595 -2.196 0 0 Z M-16 8.625 C-18.246 12.556 -18.413 16.162 -18 20.625 C-16.688 22.562 -16.688 22.562 -15 23.625 C-14.01 23.625 -13.02 23.625 -12 23.625 C-11.67 24.285 -11.34 24.945 -11 25.625 C-7.7 24.305 -4.4 22.985 -1 21.625 C0.445 13.555 0.445 13.555 -1.438 9.625 C-5.547 6.418 -11.666 4.958 -16 8.625 Z " fill="#4B9E40" transform="translate(279,228.375)"/>
<path d="M0 0 C4.632 3.428 7.395 6.818 9.125 12.312 C9.383 15.193 9.359 18.048 9.312 20.938 C9.312 21.701 9.311 22.464 9.311 23.25 C9.285 26.517 9.165 29.194 8.125 32.312 C7.45 32.301 6.774 32.289 6.078 32.277 C5.186 32.268 4.294 32.259 3.375 32.25 C2.493 32.238 1.612 32.227 0.703 32.215 C-1.676 32.305 -3.589 32.707 -5.875 33.312 C-14.925 33.743 -14.925 33.743 -18.875 31.312 C-24.022 26.21 -26.981 22.478 -27.25 15.062 C-27.187 10.331 -26.58 7.362 -23.48 3.75 C-16.957 -2.091 -8.021 -4.208 0 0 Z M-14.75 8.625 C-17.64 12.28 -18.341 14.597 -18.289 19.336 C-17.875 21.312 -17.875 21.312 -15.188 23.812 C-10.187 26.077 -10.187 26.077 -6.875 25.312 C-3.807 22.744 -1.087 20.192 0.125 16.312 C-0.032 13.171 -0.656 11.616 -2.5 9.062 C-6.918 5.807 -10.384 5.114 -14.75 8.625 Z " fill="#5BA752" transform="translate(210.875,228.6875)"/>
<path d="M0 0 C4.747 2.64 7.361 6 10.188 10.625 C11.374 15.845 11.069 20.871 8.648 25.695 C5.435 30.352 2.39 32.862 -3.188 34.375 C-9.667 35.299 -14.839 34.197 -20.188 30.375 C-24.374 26.303 -26.347 23.018 -26.5 17.188 C-26.427 11.596 -25.631 8.789 -22.188 4.375 C-15.6 -1.374 -8.297 -3.787 0 0 Z M-15.188 9.375 C-16.542 13.44 -16.849 17.13 -16.188 21.375 C-13.928 24.538 -12.562 26.058 -8.75 26.938 C-5.26 26.171 -2.995 24.544 -0.188 22.375 C1.554 18.891 1.526 15.166 0.812 11.375 C-2.009 8.685 -3.896 7.564 -7.75 7 C-10.525 7.427 -12.7 8.062 -15.188 9.375 Z " fill="#589B4F" transform="translate(27.1875,227.625)"/>
<path d="M0 0 C3.85 2.511 6.793 4.697 8.875 8.875 C9.833 14.638 9.957 20.627 7.25 25.938 C3.688 30.344 -0.354 33.421 -6.105 34.113 C-11.98 34.311 -16.281 33.284 -21.125 29.875 C-26.049 24.573 -26.488 21.007 -26.395 13.922 C-25.99 9.35 -25.047 7.454 -22.125 3.875 C-14.858 -1.725 -8.758 -3.153 0 0 Z M-16.125 9.875 C-16.551 12.723 -16.551 12.723 -16.438 15.938 C-16.413 17.001 -16.389 18.064 -16.363 19.16 C-16.125 21.875 -16.125 21.875 -15.125 23.875 C-13.188 23.956 -11.25 24.014 -9.312 24.062 C-8.234 24.097 -7.155 24.132 -6.043 24.168 C-3.125 23.875 -3.125 23.875 -1.301 22.488 C1.095 19.202 1.42 16.925 0.875 12.875 C-0.749 10.312 -2.566 8.505 -5.125 6.875 C-9.878 6.138 -12.723 6.407 -16.125 9.875 Z " fill="#49A13E" transform="translate(142.125,228.125)"/>
<path d="M0 0 C2.139 2.139 2.427 3.133 3 6 C4.32 6.33 5.64 6.66 7 7 C8.534 11.756 7.812 16.417 6 21 C4.292 23.498 2.958 24.762 -0.012 25.5 C-2.425 25.842 -4.821 26.068 -7.25 26.25 C-8.09 26.327 -8.931 26.405 -9.797 26.484 C-11.863 26.672 -13.931 26.838 -16 27 C-16.33 27.825 -16.33 27.825 -18 32 C-18.66 31.67 -19.32 31.34 -20 31 C-20 29.35 -20 27.7 -20 26 C-20.66 26 -21.32 26 -22 26 C-23.339 17.967 -24.127 11.4 -20 4 C-13.903 -2.097 -7.883 -2.838 0 0 Z " fill="#449F35" transform="translate(107,33)"/>
<path d="M0 0 C4.162 2.756 5.856 5.77 7.043 10.5 C8.292 17.167 8.021 23.503 6.793 30.188 C5.793 31.188 5.793 31.188 2.23 31.25 C1.096 31.229 -0.038 31.209 -1.207 31.188 C-2.349 28.903 -2.374 27.482 -2.453 24.941 C-2.486 24.104 -2.519 23.267 -2.553 22.404 C-2.614 20.639 -2.671 18.873 -2.725 17.107 C-2.742 16.688 -2.742 16.688 -2.828 14.566 C-2.853 13.799 -2.878 13.031 -2.904 12.24 C-3.207 10.188 -3.207 10.188 -5.207 7.188 C-8.027 6.895 -8.027 6.895 -11.332 7 C-12.428 7.027 -13.523 7.054 -14.652 7.082 C-15.495 7.117 -16.338 7.152 -17.207 7.188 C-17.195 7.915 -17.184 8.642 -17.172 9.391 C-17.106 16.714 -17.484 23.901 -18.207 31.188 C-20.847 31.188 -23.487 31.188 -26.207 31.188 C-29.265 25.072 -27.723 13.868 -26.02 7.438 C-24.587 3.447 -22.995 1.302 -19.207 -0.812 C-12.288 -3.821 -6.527 -3.636 0 0 Z " fill="#559C4E" transform="translate(73.20703125,229.8125)"/>
<path d="M0 0 C1.984 2.917 1.988 4.124 1.625 7.75 C1.419 8.822 1.213 9.895 1 11 C3.31 11 5.62 11 8 11 C8 13.31 8 15.62 8 18 C6.02 18 4.04 18 2 18 C2.187 30.574 2.187 30.574 4.145 34.008 C5.5 35.312 5.5 35.312 8 37 C9 38 9 38 9.062 41.062 C9.042 42.032 9.021 43.001 9 44 C4.987 44.491 1.468 44.852 -2.121 42.77 C-5.082 40.277 -6.757 38.73 -8 35 C-8.08 33.665 -8.108 32.326 -8.098 30.988 C-8.096 30.61 -8.096 30.61 -8.088 28.693 C-8.08 27.908 -8.071 27.122 -8.062 26.312 C-8.058 25.515 -8.053 24.718 -8.049 23.896 C-8.037 21.931 -8.019 19.965 -8 18 C-8.99 18 -9.98 18 -11 18 C-11.33 16.02 -11.66 14.04 -12 12 C-10.68 11.67 -9.36 11.34 -8 11 C-8 7.7 -8 4.4 -8 1 C-5.072 0.024 -3.044 -0.082 0 0 Z " fill="#46A13B" transform="translate(99,217)"/>
<path d="M0 0 C0.33 2.97 0.66 5.94 1 9 C3.31 9 5.62 9 8 9 C8 11.64 8 14.28 8 17 C5.69 17 3.38 17 1 17 C1 22.61 1 28.22 1 34 C2.65 34.33 4.3 34.66 6 35 C6.66 35.33 7.32 35.66 8 36 C8 38.31 8 40.62 8 43 C1.942 43.418 -1.19 43.123 -6 39 C-8.699 35.177 -8.446 30.76 -8.625 26.25 C-8.664 25.457 -8.702 24.664 -8.742 23.848 C-8.836 21.899 -8.919 19.949 -9 18 C-10.32 17.34 -11.64 16.68 -13 16 C-13.25 13.188 -13.25 13.188 -13 10 C-12.361 9.526 -11.721 9.051 -11.062 8.562 C-9 7 -9 7 -8.25 3.312 C-8.167 2.219 -8.085 1.126 -8 0 C-4.635 -1.082 -3.702 -0.925 0 0 Z " fill="#5EA756" transform="translate(238,218)"/>
<path d="M0 0 C0.825 0.165 0.825 0.165 5 1 C5 1.66 5 2.32 5 3 C7.31 3 9.62 3 12 3 C12.33 4.32 12.66 5.64 13 7 C13.763 6.484 14.526 5.969 15.312 5.438 C16.199 4.963 17.086 4.489 18 4 C21 5 21 5 22.824 8.203 C23.456 9.547 24.077 10.896 24.688 12.25 C25.008 12.919 25.328 13.588 25.658 14.277 C27.363 17.978 28.42 20.911 28 25 C28.66 25 29.32 25 30 25 C30.231 25.568 30.461 26.137 30.699 26.723 C35.489 38.062 35.489 38.062 39 41 C41.336 41.624 43.402 41.811 45.816 41.832 C48.296 42.023 49.86 42.772 52 44 C52 44.66 52 45.32 52 46 C46.853 47.451 41.262 48.214 36.438 45.625 C35 44 35 44 35 42 C34.34 42 33.68 42 33 42 C33.454 43.134 33.907 44.269 34.375 45.438 C35.159 48.44 35.15 49.663 33.867 52.535 C32.353 54.843 30.886 56.984 29 59 C28.34 59 27.68 59 27 59 C27.119 57.961 27.237 56.922 27.359 55.852 C27.491 54.443 27.621 53.034 27.75 51.625 C27.831 50.946 27.912 50.266 27.996 49.566 C28.528 43.246 26.669 38.661 24 33 C23.52 31.976 23.039 30.952 22.544 29.897 C20.419 25.44 18.244 21.008 16.07 16.574 C15.809 16.036 15.809 16.036 14.484 13.312 C14.007 12.339 13.53 11.366 13.038 10.363 C12 8 12 8 12 6 C10.763 5.897 9.525 5.794 8.25 5.688 C4.743 5.252 2.524 4.629 0 2 C0 1.34 0 0.68 0 0 Z " fill="#4EA540" transform="translate(53,119)"/>
<path d="M0 0 C0 0.99 0 1.98 0 3 C-0.66 3 -1.32 3 -2 3 C-2 4.65 -2 6.3 -2 8 C-2.66 8 -3.32 8 -4 8 C-4.33 10.64 -4.66 13.28 -5 16 C-3.886 16.412 -2.773 16.825 -1.625 17.25 C0.993 18.355 1.835 18.749 3.438 21.188 C3.623 21.786 3.809 22.384 4 23 C1.312 23.312 1.312 23.312 -2 23 C-4.573 20.827 -6.49 19.02 -8 16 C-10.079 15.469 -10.079 15.469 -12.82 15.07 C-13.824 14.917 -14.829 14.763 -15.863 14.604 C-16.94 14.446 -18.016 14.288 -19.125 14.125 C-28.634 12.647 -37.785 10.776 -47 8 C-46.25 3.25 -46.25 3.25 -44 1 C-38.625 0.582 -34.016 1.534 -28.875 2.875 C-21.616 4.684 -14.423 6.019 -7 7 C-6.863 6.376 -6.727 5.752 -6.586 5.109 C-5.514 1.251 -3.972 0 0 0 Z " fill="#59A550" transform="translate(165,182)"/>
<path d="M0 0 C0 0.66 0 1.32 0 2 C-1.98 2.33 -3.96 2.66 -6 3 C-5.361 3.103 -4.721 3.206 -4.062 3.312 C-3.382 3.539 -2.701 3.766 -2 4 C-1.67 4.99 -1.34 5.98 -1 7 C-1.638 7.205 -2.276 7.41 -2.934 7.621 C-3.347 7.756 -3.347 7.756 -5.438 8.438 C-5.849 8.571 -5.849 8.571 -7.934 9.246 C-10 10 -10 10 -11 11 C-11.073 13.353 -11.084 15.708 -11.062 18.062 C-11.053 19.353 -11.044 20.643 -11.035 21.973 C-11.024 22.972 -11.012 23.971 -11 25 C-6.71 25 -2.42 25 2 25 C1.34 25.99 0.68 26.98 0 28 C-2.312 28.441 -2.312 28.441 -5 28.562 C-9.792 28.792 -9.792 28.792 -12 31 C-15.938 31 -17.536 30.452 -20.375 27.688 C-23.13 22.895 -22.685 17.312 -22 12 C-20.404 6.494 -16.676 3.712 -11.902 0.945 C-7.555 -1.215 -4.707 -0.799 0 0 Z " fill="#429E36" transform="translate(138,227)"/>
<path d="M0 0 C0.91 0.009 1.82 0.018 2.758 0.027 C3.107 0.033 3.107 0.033 4.875 0.062 C4.875 2.042 4.875 4.023 4.875 6.062 C4.309 6.316 3.743 6.57 3.16 6.832 C2.427 7.176 1.693 7.52 0.938 7.875 C0.207 8.211 -0.524 8.548 -1.277 8.895 C-3.125 10.062 -3.125 10.062 -4.125 13.062 C-4.329 15.899 -4.497 18.723 -4.625 21.562 C-4.99 29.657 -4.99 29.657 -6.125 33.062 C-8.765 33.062 -11.405 33.062 -14.125 33.062 C-15.836 25.859 -16.703 16 -13.938 8.938 C-10.149 2.929 -7.079 -0.091 0 0 Z " fill="#499B3F" transform="translate(174.125,227.9375)"/>
<path d="M0 0 C0.99 0 1.98 0 3 0 C5.114 4.302 5.181 7.808 5.062 12.562 C4.88 20.587 4.88 20.587 6 24 C5.397 23.988 4.793 23.977 4.172 23.965 C3.373 23.956 2.573 23.947 1.75 23.938 C0.961 23.926 0.172 23.914 -0.641 23.902 C-2.921 23.997 -4.801 24.427 -7 25 C-11.867 25.232 -15.618 25.39 -20 23 C-20.33 22.34 -20.66 21.68 -21 21 C-20.34 20.34 -19.68 19.68 -19 19 C-19.412 18.825 -19.412 18.825 -21.5 17.938 C-22.325 17.298 -23.15 16.659 -24 16 C-24.312 12.312 -24.312 12.312 -24 9 C-23.34 9 -22.68 9 -22 9 C-22 9.66 -22 10.32 -22 11 C-21.443 11.268 -20.886 11.536 -20.312 11.812 C-18 13 -18 13 -15.562 14.625 C-12.62 16.204 -11.276 16.655 -8 16 C-2.279 12.05 -1.386 6.435 0 0 Z " fill="#51A047" transform="translate(212,237)"/>
<path d="M0 0 C0.66 0.33 1.32 0.66 2 1 C1.979 1.804 1.959 2.609 1.938 3.438 C2 6 2 6 3 7 C3.144 6.196 3.289 5.391 3.438 4.562 C4 2 4 2 5 1 C7.692 0.763 10.365 0.578 13.062 0.438 C13.821 0.394 14.58 0.351 15.361 0.307 C17.241 0.2 19.12 0.1 21 0 C20.67 0.66 20.34 1.32 20 2 C17.98 2.107 15.959 2.185 13.938 2.25 C7.956 3.001 7.956 3.001 5.604 5.46 C2.872 9.373 0.888 13.631 -1 18 C-1.66 18 -2.32 18 -3 18 C-3.124 18.907 -3.248 19.815 -3.375 20.75 C-3.921 23.59 -4.573 25.526 -6 28 C-6.66 28 -7.32 28 -8 28 C-8.33 29.32 -8.66 30.64 -9 32 C-9.66 32 -10.32 32 -11 32 C-10.67 34.97 -10.34 37.94 -10 41 C-11.32 41 -12.64 41 -14 41 C-14.196 36.781 -13.802 33.83 -12 30 C-12.99 29.67 -13.98 29.34 -15 29 C-14.471 23.61 -12.537 19.758 -9.938 15.125 C-9.56 14.437 -9.183 13.748 -8.795 13.039 C-7.871 11.355 -6.937 9.677 -6 8 C-5.01 8 -4.02 8 -3 8 C-2.876 7.051 -2.752 6.103 -2.625 5.125 C-2 2 -2 2 0 0 Z " fill="#64A55C" transform="translate(86,58)"/>
<path d="M0 0 C0.99 0.33 1.98 0.66 3 1 C3 1.66 3 2.32 3 3 C4.32 3.33 5.64 3.66 7 4 C7 4.66 7 5.32 7 6 C6.34 6 5.68 6 5 6 C5 6.66 5 7.32 5 8 C4.01 8 3.02 8 2 8 C2.012 8.727 2.023 9.454 2.035 10.203 C2.101 17.526 1.723 24.714 1 32 C-1.64 32 -4.28 32 -7 32 C-10.058 25.884 -8.516 14.68 -6.812 8.25 C-5.414 4.321 -3.797 1.993 0 0 Z " fill="#70B069" transform="translate(54,229)"/>
<path d="M0 0 C4.775 2.655 7.576 6.019 10.125 10.875 C10.942 13.846 11.085 16.307 10.812 19.375 C10.153 20.035 9.492 20.695 8.812 21.375 C8.812 18.735 8.812 16.095 8.812 13.375 C8.153 13.375 7.492 13.375 6.812 13.375 C6.544 12.591 6.276 11.808 6 11 C4.812 8.375 4.812 8.375 1.812 6.375 C1.483 8.025 1.152 9.675 0.812 11.375 C0.029 10.859 -0.755 10.344 -1.562 9.812 C-5.821 8.124 -8.277 8.49 -12.707 9.113 C-16.064 9.468 -18.888 9.021 -22.188 8.375 C-22.309 9.013 -22.43 9.651 -22.555 10.309 C-22.722 11.135 -22.89 11.961 -23.062 12.812 C-23.225 13.636 -23.387 14.46 -23.555 15.309 C-23.764 15.991 -23.972 16.672 -24.188 17.375 C-24.848 17.705 -25.508 18.035 -26.188 18.375 C-26.647 12.75 -25.772 8.752 -22.188 4.375 C-15.635 -1.403 -8.269 -3.774 0 0 Z " fill="#65A65C" transform="translate(27.1875,227.625)"/>
<path d="M0 0 C-0.023 0.446 -0.023 0.446 -0.141 2.703 C-0.177 3.874 -0.213 5.044 -0.25 6.25 C-0.273 6.83 -0.273 6.83 -0.391 9.766 C0 13 0 13 1.562 15.406 C4.913 17.597 7.284 17.397 11.25 17.25 C12.513 17.214 13.777 17.178 15.078 17.141 C16.042 17.094 17.007 17.048 18 17 C18.33 17.99 18.66 18.98 19 20 C16.062 21.469 13.246 21 10 21 C9.67 21.33 9.34 21.66 9 22 C6.329 22.141 3.676 22.042 1 22 C0.67 21.34 0.34 20.68 0 20 C-1.072 20.124 -2.145 20.248 -3.25 20.375 C-7 20 -7 20 -9.5 17.312 C-11.196 13.567 -11.32 12.783 -10 9 C-9.776 8.248 -9.551 7.497 -9.32 6.723 C-7.896 2.074 -7.896 2.074 -7 0 C-4.333 -1.333 -2.833 -0.671 0 0 Z " fill="#459E39" transform="translate(12,236)"/>
<path d="M0 0 C-1.532 4.164 -4.551 6.269 -8 8.812 C-8.576 9.246 -9.152 9.68 -9.745 10.126 C-14.745 13.87 -19.839 17.481 -25 21 C-27.934 19.582 -30.433 18.017 -33 16 C-32.113 15.608 -31.226 15.216 -30.312 14.812 C-26.86 12.924 -24.692 10.838 -22 8 C-19 6 -19 6 -15 6 C-14.67 4.68 -14.34 3.36 -14 2 C-12.68 1.67 -11.36 1.34 -10 1 C-9.67 2.65 -9.34 4.3 -9 6 C-9 4.68 -9 3.36 -9 2 C-5.865 0.142 -3.625 -0.201 0 0 Z " fill="#599F4E" transform="translate(212,167)"/>
<path d="M0 0 C3 2.062 3 2.062 5 4 C3.35 4.66 1.7 5.32 0 6 C-0.33 5.67 -0.66 5.34 -1 5 C-6.018 4.614 -8.923 5.002 -13 8 C-14 9 -14 9 -14.25 12.375 C-14 16 -14 16 -13 17.875 C-8.058 20.655 -1.536 20.115 4 20 C3 23 3 23 1.215 24.168 C-3.458 25.923 -8.298 25.703 -12.875 23.812 C-16.476 20.741 -17.849 18.357 -18.375 13.625 C-17.861 8.652 -16.719 4.611 -13 1.125 C-8.623 -1.337 -4.76 -1.241 0 0 Z " fill="#5B9F51" transform="translate(176,89)"/>
<path d="M0 0 C6.465 -0.454 9.691 0.222 15 4 C20.477 9.773 21.328 14.98 21.25 22.625 C21.258 23.388 21.265 24.151 21.273 24.938 C21.26 28.808 21.193 30.711 19 34 C16.565 30.247 16.829 26.944 16.938 22.562 C17.037 18.192 17.057 14.254 16 10 C15.01 10 14.02 10 13 10 C12.67 11.65 12.34 13.3 12 15 C11.237 14.216 10.474 13.433 9.688 12.625 C7 10 7 10 4 8 C5.65 8 7.3 8 9 8 C9.33 6.35 9.66 4.7 10 3 C7.982 3.098 5.964 3.195 3.945 3.293 C3.303 3.196 2.661 3.1 2 3 C1.34 2.01 0.68 1.02 0 0 Z " fill="#65AA5D" transform="translate(199,227)"/>
<path d="M0 0 C0.825 0.165 0.825 0.165 5 1 C5 1.66 5 2.32 5 3 C7.31 3 9.62 3 12 3 C12.33 4.32 12.66 5.64 13 7 C13.763 6.484 14.526 5.969 15.312 5.438 C16.199 4.963 17.086 4.489 18 4 C21 5 21 5 22.238 7.039 C25.495 14.878 25.495 14.878 24.25 19.125 C23.838 20.074 23.425 21.023 23 22 C21.68 22.33 20.36 22.66 19 23 C17.829 20.544 16.663 18.085 15.5 15.625 C15.166 14.926 14.832 14.228 14.488 13.508 C12 8.227 12 8.227 12 6 C10.763 5.897 9.525 5.794 8.25 5.688 C4.743 5.252 2.524 4.629 0 2 C0 1.34 0 0.68 0 0 Z " fill="#569D4B" transform="translate(53,119)"/>
<path d="M0 0 C0.144 1.093 0.289 2.186 0.438 3.312 C1 7 1 7 2 10 C3.114 10.144 4.227 10.289 5.375 10.438 C9 11 9 11 11 12 C11 14.31 11 16.62 11 19 C4.942 19.418 1.81 19.123 -3 15 C-5.582 11.596 -5.371 8.155 -5 4 C-2.744 0 -2.744 0 0 0 Z " fill="#46A03C" transform="translate(235,242)"/>
<path d="M0 0 C0.66 0.33 1.32 0.66 2 1 C1.25 5.75 1.25 5.75 -1 8 C-1.616 11.4 -1.657 14.606 -1 18 C2 20.625 2 20.625 5 22 C5.33 21.01 5.66 20.02 6 19 C6 19.66 6 20.32 6 21 C10.29 21 14.58 21 19 21 C18.34 21.99 17.68 22.98 17 24 C14.688 24.441 14.688 24.441 12 24.562 C7.208 24.792 7.208 24.792 5 27 C1.062 27 -0.536 26.452 -3.375 23.688 C-6.119 18.915 -5.728 13.29 -5 8 C-3.836 4.932 -2.352 2.352 0 0 Z " fill="#62A75A" transform="translate(121,231)"/>
<path d="M0 0 C0.99 0 1.98 0 3 0 C3.351 5.842 3.167 9.853 0 15 C-0.66 15 -1.32 15 -2 15 C-2.33 16.32 -2.66 17.64 -3 19 C-3.66 19 -4.32 19 -5 19 C-4.67 21.97 -4.34 24.94 -4 28 C-5.32 28 -6.64 28 -8 28 C-8.196 23.781 -7.802 20.83 -6 17 C-6.99 16.67 -7.98 16.34 -9 16 C-8.502 12.265 -8.125 10.188 -6 7 C-3.375 6.312 -3.375 6.312 -1 6 C-0.67 4.02 -0.34 2.04 0 0 Z " fill="#56A74D" transform="translate(80,71)"/>
<path d="M0 0 C6.875 3.625 6.875 3.625 8 7 C7.175 6.835 7.175 6.835 3 6 C2.67 6.99 2.34 7.98 2 9 C2.825 9.165 2.825 9.165 7 10 C7 10.66 7 11.32 7 12 C8.65 12 10.3 12 12 12 C12.165 12.66 12.165 12.66 13 16 C9.277 15.439 6.824 14.428 3.688 12.375 C-1.047 9.615 -3.738 9.684 -9 11 C-9.33 11.33 -9.66 11.66 -10 12 C-16.279 11.535 -16.279 11.535 -18.938 9.562 C-20 8 -20 8 -20 6 C-18.35 6 -16.7 6 -15 6 C-14.67 6.66 -14.34 7.32 -14 8 C-8.647 7.58 -6.002 6.544 -2 3 C-1.34 3 -0.68 3 0 3 C0 2.01 0 1.02 0 0 Z " fill="#64A758" transform="translate(174,29)"/>
<path d="M0 0 C0.33 0.99 0.66 1.98 1 3 C2.815 3.165 2.815 3.165 12 4 C8.252 5.874 4.52 7.294 0.562 8.625 C-0.093 8.854 -0.748 9.084 -1.424 9.32 C-5.06 10.546 -8.16 11.281 -12 11 C-12 9.68 -12 8.36 -12 7 C-13.65 6.67 -15.3 6.34 -17 6 C-17 5.01 -17 4.02 -17 3 C-16.175 3.062 -15.35 3.124 -14.5 3.188 C-10.777 2.988 -8.22 2.1 -4.832 0.656 C-3 0 -3 0 0 0 Z " fill="#65AA5B" transform="translate(126,33)"/>
<path d="M0 0 C5.657 1.923 10.098 4.558 13 10 C12.781 12.16 12.781 12.16 12 14 C10 15 10 15 6.75 14.375 C2.478 12.808 0.301 11.06 -3 8 C-2.67 6.68 -2.34 5.36 -2 4 C-3.65 4 -5.3 4 -7 4 C-6.67 3.34 -6.34 2.68 -6 2 C-4.02 2 -2.04 2 0 2 C0 1.34 0 0.68 0 0 Z " fill="#4EA145" transform="translate(138,227)"/>
<path d="M0 0 C3.798 0.788 5.492 1.973 8 5 C8.98 7.959 9.108 10.647 9.062 13.75 C9.053 14.549 9.044 15.348 9.035 16.172 C9.024 16.775 9.012 17.378 9 18 C8.01 18 7.02 18 6 18 C5.67 20.31 5.34 22.62 5 25 C4.34 24.67 3.68 24.34 3 24 C2.347 21.652 1.824 19.389 1.375 17 C1.243 16.323 1.111 15.646 0.975 14.949 C0.036 9.86 -0.271 5.153 0 0 Z " fill="#55A24A" transform="translate(219,110)"/>
<path d="M0 0 C4.131 0.608 7.433 1.811 11 4 C12.536 7.522 11.627 10.174 10.562 13.75 C10.275 14.735 9.988 15.72 9.691 16.734 C9.463 17.482 9.235 18.23 9 19 C8.34 18.67 7.68 18.34 7 18 C7 15.69 7 13.38 7 11 C6.319 10.938 5.639 10.876 4.938 10.812 C0.968 9.715 -1.786 7.51 -5 5 C-3.68 4.67 -2.36 4.34 -1 4 C-0.67 2.68 -0.34 1.36 0 0 Z " fill="#62A458" transform="translate(204,49)"/>
<path d="M0 0 C0.699 -0.012 1.397 -0.024 2.117 -0.037 C6.199 -0.049 9.33 0.374 13 2.188 C13 2.847 13 3.508 13 4.188 C4.596 6.402 -3.373 6.395 -12 6.188 C-12.33 4.538 -12.66 2.888 -13 1.188 C-8.669 0.13 -4.434 0.004 0 0 Z " fill="#54A149" transform="translate(139,30.8125)"/>
<path d="M0 0 C5.959 -0.497 10.035 0.61 15 4 C19.349 8.008 21.787 12.287 22.25 18.188 C22 21 22 21 20 23 C20 20.36 20 17.72 20 15 C19.34 15 18.68 15 18 15 C17.732 14.216 17.464 13.433 17.188 12.625 C16 10 16 10 13 8 C12.67 9.65 12.34 11.3 12 13 C11.154 12.505 10.309 12.01 9.438 11.5 C5.662 9.853 3.072 9.756 -1 10 C-1 8.68 -1 7.36 -1 6 C-0.34 6 0.32 6 1 6 C1.33 5.34 1.66 4.68 2 4 C2 4.99 2 5.98 2 7 C4.64 7.33 7.28 7.66 10 8 C10 7.01 10 6.02 10 5 C8.35 4.34 8.35 4.34 0 1 C0 0.67 0 0.34 0 0 Z " fill="#67A95A" transform="translate(16,226)"/>
<path d="M0 0 C0.625 1.875 0.625 1.875 1 4 C0.34 4.66 -0.32 5.32 -1 6 C-1.99 5.34 -2.98 4.68 -4 4 C-4.205 4.626 -4.41 5.253 -4.621 5.898 C-4.891 6.716 -5.16 7.533 -5.438 8.375 C-5.704 9.187 -5.971 9.999 -6.246 10.836 C-7 13 -7 13 -8 15 C-7.34 15.33 -6.68 15.66 -6 16 C-6 22.6 -6 29.2 -6 36 C-6.66 35.67 -7.32 35.34 -8 35 C-8 29.39 -8 23.78 -8 18 C-8.99 18 -9.98 18 -11 18 C-11.33 16.02 -11.66 14.04 -12 12 C-10.68 11.67 -9.36 11.34 -8 11 C-8 7.7 -8 4.4 -8 1 C-5.072 0.024 -3.044 -0.082 0 0 Z " fill="#88C481" transform="translate(99,217)"/>
<path d="M0 0 C0.99 0.66 1.98 1.32 3 2 C2.34 2 1.68 2 1 2 C2.812 4 2.812 4 5 6 C5.99 6 6.98 6 8 6 C8 7.32 8 8.64 8 10 C6.009 10.381 4.007 10.713 2 11 C1.67 10.67 1.34 10.34 1 10 C-0.515 9.768 -2.038 9.588 -3.562 9.438 C-4.389 9.354 -5.215 9.27 -6.066 9.184 C-6.704 9.123 -7.343 9.062 -8 9 C-7.34 8.67 -6.68 8.34 -6 8 C-6 7.34 -6 6.68 -6 6 C-7.32 5.67 -8.64 5.34 -10 5 C-10.33 3.68 -10.66 2.36 -11 1 C-7.312 -0.18 -3.849 -0.21 0 0 Z " fill="#509F46" transform="translate(67,227)"/>
<path d="M0 0 C0 0.99 0 1.98 0 3 C-0.66 3 -1.32 3 -2 3 C-1.988 3.687 -1.977 4.374 -1.965 5.082 C-1.96 5.533 -1.96 5.533 -1.938 7.812 C-1.926 8.706 -1.914 9.599 -1.902 10.52 C-2 13 -2 13 -3 16 C-5.64 15.67 -8.28 15.34 -11 15 C-10 10 -9 5 -8 0 C-4.947 -0.981 -3.053 -0.981 0 0 Z " fill="#43A636" transform="translate(238,218)"/>
<path d="M0 0 C0.99 0.66 1.98 1.32 3 2 C3 2.99 3 3.98 3 5 C3.66 5.33 4.32 5.66 5 6 C-2.892 12.875 -2.892 12.875 -7.312 13.375 C-8.199 13.251 -9.086 13.127 -10 13 C-12.375 13.5 -12.375 13.5 -14 14 C-14 15.32 -14 16.64 -14 18 C-14.66 17.67 -15.32 17.34 -16 17 C-14.768 10.534 -11.078 8.507 -6 5 C-3.965 3.371 -1.986 1.688 0 0 Z " fill="#479C3B" transform="translate(217,155)"/>
<path d="M0 0 C0.278 0.144 0.278 0.144 1.688 0.875 C5.058 2.515 8.278 2.628 12 3 C11.67 4.65 11.34 6.3 11 8 C6.079 8.167 2.497 8.248 -2 6 C-2 6.99 -2 7.98 -2 9 C-2.99 9.33 -3.98 9.66 -5 10 C-6.688 11.562 -6.688 11.562 -8 13 C-8.33 11.35 -8.66 9.7 -9 8 C-7.68 7.67 -6.36 7.34 -5 7 C-5 6.34 -5 5.68 -5 5 C-4.34 5 -3.68 5 -3 5 C-3 3.68 -3 2.36 -3 1 C-2.01 0.67 -1.02 0.34 0 0 Z " fill="#4A9C3F" transform="translate(197,227)"/>
<path d="M0 0 C1.65 1.65 3.3 3.3 5 5 C4.67 5.99 4.34 6.98 4 8 C3.855 9.407 3.754 10.818 3.684 12.23 C3.642 13.033 3.6 13.835 3.557 14.662 C3.537 15.079 3.537 15.079 3.438 17.188 C3.394 18.032 3.351 18.877 3.307 19.748 C3.201 21.832 3.1 23.916 3 26 C2.01 26 1.02 26 0 26 C-0.367 23.501 -0.719 21.002 -1.062 18.5 C-1.166 17.804 -1.27 17.108 -1.377 16.391 C-2.111 10.926 -2.536 5.073 0 0 Z " fill="#52A048" transform="translate(49,233)"/>
<path d="M0 0 C0.557 0.227 1.114 0.454 1.688 0.688 C-2.799 5.702 -6.169 7.351 -12.812 8.062 C-17.021 7.612 -19.083 6.378 -22.312 3.688 C-22.642 2.697 -22.972 1.708 -23.312 0.688 C-19.938 0.562 -19.938 0.562 -16.312 0.688 C-15.653 1.347 -14.993 2.007 -14.312 2.688 C-8.682 3.219 -4.767 -0.644 0 0 Z " fill="#5BA352" transform="translate(107.3125,186.3125)"/>
<path d="M0 0 C2.648 2.578 4.944 4.916 7 8 C9.023 8.441 9.023 8.441 11.375 8.562 C14.764 8.75 17.037 9.315 20 11 C20 11.66 20 12.32 20 13 C15.654 14.202 11.48 14.728 7 14 C3.904 11.562 2.177 9.265 0 6 C-0.125 2.812 -0.125 2.812 0 0 Z " fill="#61A357" transform="translate(85,152)"/>
<path d="M0 0 C10.56 0 21.12 0 32 0 C32.165 0.66 32.165 0.66 33 4 C33.66 4 34.32 4 35 4 C35 4.99 35 5.98 35 7 C32.172 6.607 30.389 6.321 28.158 4.48 C25.482 2.645 23.938 2.626 20.719 2.637 C19.712 2.637 18.705 2.638 17.668 2.639 C17.145 2.647 17.145 2.647 14.5 2.688 C13.455 2.684 12.409 2.681 11.332 2.678 C2.851 2.737 2.851 2.737 -1 5 C-0.67 3.35 -0.34 1.7 0 0 Z " fill="#5DA055" transform="translate(181,104)"/>
<path d="M0 0 C0.66 0 1.32 0 2 0 C2.086 0.626 2.173 1.253 2.262 1.898 C2.686 4.367 3.146 6.644 4 9 C6.562 10.5 6.562 10.5 9 11 C10 12 10 12 10.062 15.062 C10.042 16.032 10.021 17.001 10 18 C8.563 18.054 7.125 18.093 5.688 18.125 C5.287 18.137 5.287 18.137 3.262 18.195 C1 18 1 18 -2 16 C-1.673 15.469 -1.345 14.938 -1.008 14.391 C0.264 11.373 0.196 9.013 0.125 5.75 C0.107 4.672 0.089 3.595 0.07 2.484 C0.047 1.665 0.024 0.845 0 0 Z " fill="#68AD5C" transform="translate(98,243)"/>
<path d="M0 0 C0.33 0.165 0.33 0.165 2 1 C2.629 3.332 3.155 5.693 3.625 8.062 C3.885 9.353 4.146 10.643 4.414 11.973 C4.607 12.972 4.801 13.971 5 15 C5.66 10.38 6.32 5.76 7 1 C7.33 1 7.66 1 8 1 C8 6.94 8 12.88 8 19 C5.36 19 2.72 19 0 19 C0 12.73 0 6.46 0 0 Z " fill="#86BB80" transform="translate(160,242)"/>
<path d="M0 0 C0.99 0 1.98 0 3 0 C3.33 0.99 3.66 1.98 4 3 C4.99 2.01 5.98 1.02 7 0 C7.054 1.77 7.093 3.541 7.125 5.312 C7.148 6.299 7.171 7.285 7.195 8.301 C6.941 11.814 5.684 13.404 3.062 15.688 C1 17 1 17 -2 17 C-1.34 11.39 -0.68 5.78 0 0 Z " fill="#67AB60" transform="translate(217,77)"/>
<path d="M0 0 C0.33 0 0.66 0 1 0 C1.062 0.743 1.124 1.485 1.188 2.25 C2.295 5.998 3.658 7.009 7 9 C12.045 9.976 16.875 10.107 22 10 C21 13 21 13 19.215 14.168 C14.542 15.923 9.702 15.703 5.125 13.812 C2.608 11.666 1.316 10.048 0 7 C-0.188 3.188 -0.188 3.188 0 0 Z " fill="#579E4B" transform="translate(158,99)"/>
<path d="M0 0 C0 1.98 0 3.96 0 6 C-5.625 9 -5.625 9 -9 9 C-9.33 8.01 -9.66 7.02 -10 6 C-11.98 6.33 -13.96 6.66 -16 7 C-15.709 4.19 -15.184 3.167 -13.062 1.25 C-8.703 -0.53 -4.648 -0.244 0 0 Z " fill="#62A65A" transform="translate(179,228)"/>
<path d="M0 0 C6.661 1.033 11.517 3.086 17 7 C16.67 8.65 16.34 10.3 16 12 C12.25 13.125 12.25 13.125 10 12 C9.375 9.938 9.375 9.938 9 8 C7.35 7.67 5.7 7.34 4 7 C4 6.34 4 5.68 4 5 C2.35 4.67 0.7 4.34 -1 4 C-0.67 2.68 -0.34 1.36 0 0 Z " fill="#47A03A" transform="translate(177,34)"/>
<path d="M0 0 C1.65 0 3.3 0 5 0 C4.691 0.846 4.381 1.691 4.062 2.562 C2.985 6.05 2.434 9.382 2 13 C0.68 12.67 -0.64 12.34 -2 12 C-2 14.31 -2 16.62 -2 19 C-2.66 19 -3.32 19 -4 19 C-5.784 15.938 -6.229 13.779 -6.125 10.25 C-6.107 9.451 -6.089 8.652 -6.07 7.828 C-6.047 7.225 -6.024 6.622 -6 6 C-5.67 6.66 -5.34 7.32 -5 8 C-4.01 7.67 -3.02 7.34 -2 7 C-0.812 3.438 -0.812 3.438 0 0 Z " fill="#5DA354" transform="translate(259,236)"/>
<path d="M0 0 C2 2 2 2 2.25 5 C2.129 9.762 1.044 14.369 0 19 C-1.32 19.33 -2.64 19.66 -4 20 C-4.054 17.583 -4.094 15.167 -4.125 12.75 C-4.142 12.068 -4.159 11.386 -4.176 10.684 C-4.212 6.968 -4.188 4.091 -2 1 C-1.34 0.67 -0.68 0.34 0 0 Z " fill="#449D39" transform="translate(77,240)"/>
<path d="M0 0 C0 0.66 0 1.32 0 2 C-1.98 2.33 -3.96 2.66 -6 3 C-5.361 3.103 -4.721 3.206 -4.062 3.312 C-3.382 3.539 -2.701 3.766 -2 4 C-1.67 4.99 -1.34 5.98 -1 7 C-2.65 7.495 -2.65 7.495 -11 10 C-12.075 7.348 -13.095 4.716 -14 2 C-8.777 -0.665 -5.918 -1.329 0 0 Z " fill="#5AA252" transform="translate(138,227)"/>
<path d="M0 0 C4.75 0.875 4.75 0.875 7 2 C7 4.31 7 6.62 7 9 C-1.76 9.445 -1.76 9.445 -6 6 C-6 5.34 -6 4.68 -6 4 C-5.381 3.897 -4.762 3.794 -4.125 3.688 C-2 3 -2 3 0 0 Z " fill="#529C49" transform="translate(239,252)"/>
<path d="M0 0 C1 1 1 1 1.062 4.062 C1.042 5.032 1.021 6.001 1 7 C0.67 7.165 0.67 7.165 -1 8 C-3.094 7.258 -3.094 7.258 -5.5 6.125 C-6.294 5.756 -7.088 5.388 -7.906 5.008 C-9.276 4.349 -10.641 3.68 -12 3 C-11.67 2.01 -11.34 1.02 -11 0 C-6.638 -2.082 -4.264 -2.315 0 0 Z " fill="#4A9C3E" transform="translate(282,230)"/>
<path d="M0 0 C0.66 0.33 1.32 0.66 2 1 C1.67 2.65 1.34 4.3 1 6 C0.01 6.33 -0.98 6.66 -2 7 C-1.979 8.279 -1.959 9.558 -1.938 10.875 C-1.875 14.75 -1.875 14.75 -3 17 C-2.01 17.33 -1.02 17.66 0 18 C-0.33 19.32 -0.66 20.64 -1 22 C-1.66 22 -2.32 22 -3 22 C-5.718 17.47 -7.257 13.242 -6 8 C-4.276 5.072 -2.261 2.53 0 0 Z " fill="#65A65C" transform="translate(53,96)"/>
<path d="M0 0 C1.938 0.688 1.938 0.688 4 2 C4.75 4.625 4.75 4.625 5 7 C5.66 7 6.32 7 7 7 C7.33 10.3 7.66 13.6 8 17 C6.35 17 4.7 17 3 17 C3 16.01 3 15.02 3 14 C2.34 14 1.68 14 1 14 C1 10.37 1 6.74 1 3 C0.34 2.67 -0.32 2.34 -1 2 C-0.67 1.34 -0.34 0.68 0 0 Z " fill="#429B34" transform="translate(29,234)"/>
<path d="M0 0 C0.66 0 1.32 0 2 0 C2 3.63 2 7.26 2 11 C2.66 11 3.32 11 4 11 C4.33 11.66 4.66 12.32 5 13 C5.99 13 6.98 13 8 13 C7 16 7 16 5.25 17.25 C2.436 18.188 0.848 17.712 -2 17 C-3.32 17 -4.64 17 -6 17 C-6 16.34 -6 15.68 -6 15 C-5.361 14.711 -4.721 14.423 -4.062 14.125 C-2 13 -2 13 -1 11 C-0.772 9.129 -0.59 7.253 -0.438 5.375 C-0.354 4.372 -0.27 3.369 -0.184 2.336 C-0.123 1.565 -0.062 0.794 0 0 Z " fill="#4C9C43" transform="translate(28,237)"/>
<path d="M0 0 C3.125 0.188 3.125 0.188 6.125 2.188 C8.458 2.228 10.792 2.23 13.125 2.188 C13.785 2.518 14.445 2.847 15.125 3.188 C15.125 3.847 15.125 4.507 15.125 5.188 C11.99 5.352 11.99 5.352 -3.875 6.188 C-3.875 0.253 -3.875 0.253 0 0 Z " fill="#479F3C" transform="translate(142.875,188.8125)"/>
<path d="M0 0 C1.459 0.097 2.917 0.206 4.375 0.324 C5.112 0.373 5.85 0.421 6.609 0.471 C12.082 0.865 12.082 0.865 14.375 2.012 C14.375 2.672 14.375 3.332 14.375 4.012 C12.065 4.342 9.755 4.672 7.375 5.012 C7.375 4.352 7.375 3.692 7.375 3.012 C4.735 3.012 2.095 3.012 -0.625 3.012 C-0.955 4.332 -1.285 5.652 -1.625 7.012 C-3.605 7.012 -5.585 7.012 -7.625 7.012 C-5.048 0.016 -5.048 0.016 0 0 Z " fill="#5EA755" transform="translate(140.625,186.98828125)"/>
<path d="M0 0 C2.797 2.068 3.027 3.144 3.688 6.688 C3.791 7.781 3.894 8.874 4 10 C3.01 10 2.02 10 1 10 C1 11.98 1 13.96 1 16 C0.34 16 -0.32 16 -1 16 C-4 10.375 -4 10.375 -4 7 C-3.01 7 -2.02 7 -1 7 C-1.021 6.031 -1.041 5.061 -1.062 4.062 C-1 1 -1 1 0 0 Z " fill="#61A356" transform="translate(77,134)"/>
<path d="M0 0 C2.5 1.375 2.5 1.375 4 3 C4 3.99 4 4.98 4 6 C3.34 6 2.68 6 2 6 C2 5.34 2 4.68 2 4 C-1.96 3.67 -5.92 3.34 -10 3 C-10 3.66 -10 4.32 -10 5 C-11.32 4.67 -12.64 4.34 -14 4 C-10.218 -1.583 -6.296 -1.444 0 0 Z " fill="#68A65D" transform="translate(168,17)"/>
<path d="M0 0 C0.66 0.33 1.32 0.66 2 1 C1.25 5.75 1.25 5.75 -1 8 C-1.414 10.602 -1.414 10.602 -1.625 13.625 C-1.7 14.628 -1.775 15.631 -1.852 16.664 C-1.901 17.435 -1.95 18.206 -2 19 C-2.99 19.33 -3.98 19.66 -5 20 C-5.447 12.441 -5.56 7.219 -1 1 C-0.67 0.67 -0.34 0.34 0 0 Z " fill="#68A861" transform="translate(121,231)"/>
<path d="M0 0 C3.536 3.173 5.586 5.167 6 10 C2.063 11.312 -0.125 10.243 -4 9 C-4 5.001 -2.274 3.198 0 0 Z " fill="#48A33C" transform="translate(145,231)"/>
<path d="M0 0 C-1 3 -1 3 -3 4.188 C-8.031 5.55 -13.044 5.652 -18 4 C-18 3.34 -18 2.68 -18 2 C-12.121 -0.613 -6.293 -0.183 0 0 Z " fill="#5DA653" transform="translate(144,257)"/>
<path d="M0 0 C7.26 0 14.52 0 22 0 C21.67 0.495 21.67 0.495 20 3 C18.029 3.341 18.029 3.341 15.648 3.293 C14.798 3.283 13.947 3.274 13.07 3.264 C12.181 3.239 11.291 3.213 10.375 3.188 C9.478 3.174 8.581 3.16 7.656 3.146 C5.437 3.111 3.219 3.062 1 3 C0.67 2.01 0.34 1.02 0 0 Z " fill="#66B360" transform="translate(187,99)"/>
<path d="M0 0 C0.99 0 1.98 0 3 0 C4.795 3.814 5.375 6.786 5 11 C4.34 11.66 3.68 12.32 3 13 C0.984 11.824 0.984 11.824 -1 10 C-1.172 7.52 -1.172 7.52 -0.75 4.812 C-0.621 3.911 -0.492 3.01 -0.359 2.082 C-0.241 1.395 -0.122 0.708 0 0 Z " fill="#43A237" transform="translate(212,237)"/>
<path d="M0 0 C2.31 0.33 4.62 0.66 7 1 C7.33 3.31 7.66 5.62 8 8 C5.03 8 2.06 8 -1 8 C-1.33 7.34 -1.66 6.68 -2 6 C-1.34 6 -0.68 6 0 6 C0 4.02 0 2.04 0 0 Z " fill="#439C38" transform="translate(267,254)"/>
<path d="M0 0 C0.99 0.33 1.98 0.66 3 1 C3.33 3.31 3.66 5.62 4 8 C3.01 8 2.02 8 1 8 C0.67 10.31 0.34 12.62 0 15 C-0.66 14.67 -1.32 14.34 -2 14 C-2.52 11.602 -2.52 11.602 -2.812 8.625 C-2.922 7.648 -3.032 6.671 -3.145 5.664 C-3 3 -3 3 -1.512 1.148 C-1.013 0.769 -0.514 0.39 0 0 Z " fill="#6CAB62" transform="translate(224,120)"/>
<path d="M0 0 C0.99 0.33 1.98 0.66 3 1 C3.33 3.31 3.66 5.62 4 8 C0.949 8.288 -1.962 8.458 -5 8 C-7.062 5.5 -7.062 5.5 -8 3 C-5.69 3.33 -3.38 3.66 -1 4 C-0.67 2.68 -0.34 1.36 0 0 Z " fill="#5EA554" transform="translate(283,233)"/>
<path d="M0 0 C3 3 3 3 3.293 5.262 C3.258 6.062 3.223 6.863 3.188 7.688 C3.16 8.496 3.133 9.304 3.105 10.137 C3.071 10.752 3.036 11.366 3 12 C4.98 12 6.96 12 9 12 C9.33 12.66 9.66 13.32 10 14 C5.772 15.626 4.964 14.655 0 13 C0 8.71 0 4.42 0 0 Z " fill="#5CA256" transform="translate(109,169)"/>
<path d="M0 0 C0.99 0 1.98 0 3 0 C4.315 3.659 3.655 6.08 2.562 9.75 C2.275 10.735 1.988 11.72 1.691 12.734 C1.463 13.482 1.235 14.23 1 15 C0.34 14.67 -0.32 14.34 -1 14 C-1 11.69 -1 9.38 -1 7 C-1.99 6.67 -2.98 6.34 -4 6 C-3.01 5.34 -2.02 4.68 -1 4 C-0.312 1.875 -0.312 1.875 0 0 Z " fill="#69A45F" transform="translate(212,53)"/>
<path d="M0 0 C0 0.66 0 1.32 0 2 C-1.98 2 -3.96 2 -6 2 C-6 2.66 -6 3.32 -6 4 C-7.32 4 -8.64 4 -10 4 C-10 3.34 -10 2.68 -10 2 C-11.65 2.33 -13.3 2.66 -15 3 C-14 0 -14 0 -11.438 -1.312 C-6.951 -2.21 -4.341 -1.347 0 0 Z " fill="#67A95C" transform="translate(106,33)"/>
<path d="M0 0 C1.65 0.33 3.3 0.66 5 1 C4.216 1.804 3.433 2.609 2.625 3.438 C-0.571 7.213 -1.286 11.202 -2 16 C-2.66 15.67 -3.32 15.34 -4 15 C-4 11.37 -4 7.74 -4 4 C-2.68 3.67 -1.36 3.34 0 3 C0 2.01 0 1.02 0 0 Z " fill="#66AB5F" transform="translate(195,233)"/>
<path d="M0 0 C0.99 0.33 1.98 0.66 3 1 C2.67 3.97 2.34 6.94 2 10 C2.66 10 3.32 10 4 10 C6 12 6 12 6 15 C3.085 13.926 1.222 13.222 -1 11 C-1.23 8.652 -1.23 8.652 -1.188 5.938 C-1.181 5.039 -1.175 4.141 -1.168 3.215 C-1 1 -1 1 0 0 Z " fill="#429F35" transform="translate(120,238)"/>
<path d="M0 0 C1.65 0 3.3 0 5 0 C4.67 3.96 4.34 7.92 4 12 C3.01 12 2.02 12 1 12 C1 9.69 1 7.38 1 5 C0.34 5 -0.32 5 -1 5 C-0.67 3.35 -0.34 1.7 0 0 Z " fill="#60AD5A" transform="translate(7,237)"/>
<path d="M0 0 C2.31 0.33 4.62 0.66 7 1 C6.578 2.65 6.137 4.295 5.688 5.938 C5.444 6.854 5.2 7.771 4.949 8.715 C4.636 9.469 4.323 10.223 4 11 C3.01 11.33 2.02 11.66 1 12 C0.67 8.04 0.34 4.08 0 0 Z " fill="#62A757" transform="translate(176,187)"/>
<path d="M0 0 C2.31 0.33 4.62 0.66 7 1 C7.33 1.99 7.66 2.98 8 4 C10.64 4.33 13.28 4.66 16 5 C13.099 6.934 12.103 7.301 8.812 7.625 C7.554 7.749 6.296 7.873 5 8 C5 6.68 5 5.36 5 4 C3.35 3.67 1.7 3.34 0 3 C0 2.01 0 1.02 0 0 Z " fill="#69AB61" transform="translate(109,36)"/>
<path d="M0 0 C0 0.33 0 0.66 0 1 C-1.65 1.33 -3.3 1.66 -5 2 C-5.33 3.32 -5.66 4.64 -6 6 C-5.34 6 -4.68 6 -4 6 C-4 7.65 -4 9.3 -4 11 C-5.98 11 -7.96 11 -10 11 C-9.551 9.185 -9.091 7.373 -8.625 5.562 C-8.497 5.058 -8.497 5.058 -7.852 2.504 C-6.324 -1.987 -4.02 -0.952 0 0 Z " fill="#4AA634" transform="translate(12,236)"/>
<path d="M0 0 C2.29 3.435 2.178 4.985 2 9 C0.02 8.34 -1.96 7.68 -4 7 C-4 7.66 -4 8.32 -4 9 C-4.66 9 -5.32 9 -6 9 C-6 6.69 -6 4.38 -6 2 C-5.175 2.165 -5.175 2.165 -1 3 C-0.67 2.01 -0.34 1.02 0 0 Z " fill="#60AA56" transform="translate(149,238)"/>
<path d="M0 0 C0.99 1.32 1.98 2.64 3 4 C2.241 5.485 1.467 6.963 0.688 8.438 C0.473 8.849 0.473 8.849 -0.613 10.934 C-2 13 -2 13 -5 14 C-4.67 11.03 -4.34 8.06 -4 5 C-2.68 5 -1.36 5 0 5 C0 3.35 0 1.7 0 0 Z " fill="#529F48" transform="translate(85,164)"/>
<path d="M0 0 C0.66 0 1.32 0 2 0 C2.026 1.132 2.052 2.264 2.078 3.43 C2.134 4.911 2.192 6.393 2.25 7.875 C2.264 8.621 2.278 9.368 2.293 10.137 C2.391 12.305 2.391 12.305 3 16 C5.047 17.508 5.047 17.508 7 18 C5.02 18 3.04 18 1 18 C-0.594 14.812 -0.102 11.371 -0.062 7.875 C-0.058 7.121 -0.053 6.367 -0.049 5.59 C-0.037 3.727 -0.019 1.863 0 0 Z " fill="#7BB273" transform="translate(46,243)"/>
<path d="M0 0 C0 2.64 0 5.28 0 8 C-2.312 8.688 -2.312 8.688 -5 9 C-6.812 7.562 -6.812 7.562 -8 6 C-3.375 0 -3.375 0 0 0 Z " fill="#5EA353" transform="translate(267,252)"/>
<path d="M0 0 C0.66 0.33 1.32 0.66 2 1 C2.435 5.354 2.389 8.041 -0.375 11.438 C-3 14 -3 14 -5 14 C-4.67 12.02 -4.34 10.04 -4 8 C-3.01 7.67 -2.02 7.34 -1 7 C-1.33 5.68 -1.66 4.36 -2 3 C-1.34 3 -0.68 3 0 3 C0 2.01 0 1.02 0 0 Z " fill="#63A754" transform="translate(112,44)"/>
<path d="M0 0 C2.64 0.33 5.28 0.66 8 1 C8 3.31 8 5.62 8 8 C5.36 8.66 2.72 9.32 0 10 C-0.33 8.68 -0.66 7.36 -1 6 C0.98 5.67 2.96 5.34 5 5 C5 4.34 5 3.68 5 3 C3.35 2.67 1.7 2.34 0 2 C0 1.34 0 0.68 0 0 Z " fill="#6CB166" transform="translate(99,227)"/>
<path d="M0 0 C0.99 0.33 1.98 0.66 3 1 C2.67 1.66 2.34 2.32 2 3 C1.34 3 0.68 3 0 3 C0.062 4.093 0.124 5.186 0.188 6.312 C0 10 0 10 -1.5 11.938 C-1.995 12.288 -2.49 12.639 -3 13 C-5 10 -5 10 -4.875 7.625 C-3.822 4.465 -2.194 2.478 0 0 Z " fill="#78B273" transform="translate(220,139)"/>
<path d="M0 0 C1.98 0 3.96 0 6 0 C6.33 0.99 6.66 1.98 7 3 C8.65 3 10.3 3 12 3 C12.33 3.99 12.66 4.98 13 6 C7.328 6.454 4.402 5.651 0 2 C0 1.34 0 0.68 0 0 Z " fill="#64A358" transform="translate(6,255)"/>
<path d="M0 0 C1.98 0 3.96 0 6 0 C6 0.66 6 1.32 6 2 C4.35 2.33 2.7 2.66 1 3 C1 3.99 1 4.98 1 6 C0.01 6.33 -0.98 6.66 -2 7 C-3.688 8.562 -3.688 8.562 -5 10 C-5.33 8.35 -5.66 6.7 -6 5 C-4.68 4.67 -3.36 4.34 -2 4 C-2 3.34 -2 2.68 -2 2 C-1.34 2 -0.68 2 0 2 C0 1.34 0 0.68 0 0 Z " fill="#3FA035" transform="translate(194,230)"/>
<path d="M0 0 C2.97 0.99 5.94 1.98 9 3 C8.67 4.32 8.34 5.64 8 7 C5.36 6.67 2.72 6.34 0 6 C-0.382 4.344 -0.714 2.675 -1 1 C-0.67 0.67 -0.34 0.34 0 0 Z " fill="#479E3A" transform="translate(18,227)"/>
<path d="M0 0 C-0.33 1.98 -0.66 3.96 -1 6 C-2.32 6.33 -3.64 6.66 -5 7 C-5.33 6.34 -5.66 5.68 -6 5 C-6.99 5.99 -7.98 6.98 -9 8 C-8.67 6.02 -8.34 4.04 -8 2 C-2.25 0 -2.25 0 0 0 Z " fill="#429D39" transform="translate(169,233)"/>
<path d="M0 0 C0 0.66 0 1.32 0 2 C1.32 1.67 2.64 1.34 4 1 C4 1.66 4 2.32 4 3 C4.66 3.33 5.32 3.66 6 4 C4.68 4.99 3.36 5.98 2 7 C-0.954 5.628 -3.44 4.011 -6 2 C-3 0 -3 0 0 0 Z " fill="#5DA654" transform="translate(185,181)"/>
<path d="M0 0 C5.373 0.264 5.373 0.264 8 1 C10 3.562 10 3.562 11 6 C8.312 6.312 8.312 6.312 5 6 C2.125 3.562 2.125 3.562 0 1 C0 0.67 0 0.34 0 0 Z " fill="#5AA04E" transform="translate(158,199)"/>
<path d="M0 0 C-1.517 4.55 -5.169 6.501 -9 9 C-9 6.69 -9 4.38 -9 2 C-5.865 0.142 -3.625 -0.201 0 0 Z " fill="#529A49" transform="translate(212,167)"/>
<path d="M0 0 C0.33 0.66 0.66 1.32 1 2 C1.639 2.289 2.279 2.577 2.938 2.875 C5.444 4.242 6.082 5.329 7 8 C6.67 8.66 6.34 9.32 6 10 C4.68 10 3.36 10 2 10 C0.188 7.812 0.188 7.812 -1 5 C-0.688 2.188 -0.688 2.188 0 0 Z " fill="#59AB4E" transform="translate(218,150)"/>
<path d="M0 0 C0.99 0.33 1.98 0.66 3 1 C2.691 1.505 2.691 1.505 1.125 4.062 C-0.929 7.632 -2.023 11.009 -3 15 C-3.33 15 -3.66 15 -4 15 C-4.63 5.985 -4.63 5.985 -2 1.875 C-1.34 1.256 -0.68 0.638 0 0 Z " fill="#74AA6A" transform="translate(163,90)"/>
<path d="M0 0 C0.66 0 1.32 0 2 0 C1.67 1.32 1.34 2.64 1 4 C0.34 4 -0.32 4 -1 4 C-0.67 6.97 -0.34 9.94 0 13 C-1.32 13 -2.64 13 -4 13 C-4.55 7.365 -2.95 4.61 0 0 Z " fill="#66A55C" transform="translate(76,86)"/>
<path d="M0 0 C1.485 0.33 1.485 0.33 9 2 C9 2.99 9 3.98 9 5 C1.571 5.286 1.571 5.286 -2 3 C-1.34 2.01 -0.68 1.02 0 0 Z " fill="#6DA864" transform="translate(220,53)"/>
<path d="M0 0 C1.32 0.33 2.64 0.66 4 1 C4 1.66 4 2.32 4 3 C3.34 3 2.68 3 2 3 C1.67 4.32 1.34 5.64 1 7 C-1.31 7 -3.62 7 -6 7 C-6 6.01 -6 5.02 -6 4 C-5.381 3.897 -4.762 3.794 -4.125 3.688 C-2 3 -2 3 0 0 Z " fill="#409D33" transform="translate(209,252)"/>
<path d="M0 0 C0.99 0 1.98 0 3 0 C3 4.29 3 8.58 3 13 C2.01 13 1.02 13 0 13 C0 8.71 0 4.42 0 0 Z " fill="#43A037" transform="translate(49,246)"/>
<path d="M0 0 C2.762 2.762 2.579 5.207 3 9 C2.01 9.33 1.02 9.66 0 10 C-0.33 9.01 -0.66 8.02 -1 7 C-1.33 11.29 -1.66 15.58 -2 20 C-2.33 20 -2.66 20 -3 20 C-3 15.05 -3 10.1 -3 5 C-2.34 4.67 -1.68 4.34 -1 4 C-0.375 1.938 -0.375 1.938 0 0 Z " fill="#529E49" transform="translate(162,236)"/>
<path d="M0 0 C0.99 0 1.98 0 3 0 C3.369 7.508 3.369 7.508 1.5 10 C1.005 10.33 0.51 10.66 0 11 C-0.66 10.67 -1.32 10.34 -2 10 C-1.86 8.52 -1.712 7.041 -1.562 5.562 C-1.481 4.739 -1.4 3.915 -1.316 3.066 C-1 1 -1 1 0 0 Z " fill="#40A334" transform="translate(225,134)"/>
<path d="M0 0 C1.344 7.45 1.344 7.45 -0.25 10 C-2 11 -2 11 -5 11 C-5 10.01 -5 9.02 -5 8 C-4.01 8 -3.02 8 -2 8 C-2 6.68 -2 5.36 -2 4 C-2.99 4 -3.98 4 -5 4 C-4.67 3.01 -4.34 2.02 -4 1 C-2 0 -2 0 0 0 Z " fill="#6BA663" transform="translate(202,168)"/>
<path d="M0 0 C2.31 0.66 4.62 1.32 7 2 C7 2.66 7 3.32 7 4 C5.418 4.338 3.834 4.67 2.25 5 C1.809 5.093 1.809 5.093 -0.422 5.562 C-3 6 -3 6 -7 6 C-7 5.34 -7 4.68 -7 4 C-4.69 3.34 -2.38 2.68 0 2 C0 1.34 0 0.68 0 0 Z " fill="#65A95C" transform="translate(145,31)"/>
<path d="M0 0 C0.66 0 1.32 0 2 0 C2.027 1.646 2.046 3.292 2.062 4.938 C2.074 5.854 2.086 6.771 2.098 7.715 C2 10 2 10 1 11 C-1 11.041 -3 11.043 -5 11 C-4.67 10.34 -4.34 9.68 -4 9 C-3.01 9 -2.02 9 -1 9 C-1.021 7.886 -1.041 6.772 -1.062 5.625 C-1 2 -1 2 0 0 Z " fill="#81AE7D" transform="translate(78,250)"/>
<path d="M0 0 C1.65 0 3.3 0 5 0 C5.33 1.65 5.66 3.3 6 5 C4.845 5.495 4.845 5.495 -1 8 C-0.67 5.36 -0.34 2.72 0 0 Z " fill="#4F9B43" transform="translate(78,144)"/>
<path d="M0 0 C1.32 0.33 2.64 0.66 4 1 C4 1.99 4 2.98 4 4 C4.99 4 5.98 4 7 4 C7 6.64 7 9.28 7 12 C5 11 5 11 4.062 8.562 C3 6 3 6 0 4 C0 2.68 0 1.36 0 0 Z " fill="#67AA5D" transform="translate(231,138)"/>
<path d="M0 0 C0.99 0.165 0.99 0.165 6 1 C6 1.66 6 2.32 6 3 C7.65 3 9.3 3 11 3 C11.33 4.32 11.66 5.64 12 7 C7.245 6.424 4.03 4.449 0 2 C0 1.34 0 0.68 0 0 Z " fill="#6CA064" transform="translate(175,38)"/>
<path d="M0 0 C1.32 0.66 2.64 1.32 4 2 C4 3.98 4 5.96 4 8 C2.35 8 0.7 8 -1 8 C-1.042 5.667 -1.041 3.333 -1 1 C-0.67 0.67 -0.34 0.34 0 0 Z " fill="#5BA155" transform="translate(104,253)"/>
<path d="M0 0 C0.99 0.33 1.98 0.66 3 1 C2.67 1.99 2.34 2.98 2 4 C1.34 4 0.68 4 0 4 C-0.121 4.638 -0.242 5.276 -0.367 5.934 C-0.535 6.76 -0.702 7.586 -0.875 8.438 C-1.037 9.261 -1.2 10.085 -1.367 10.934 C-1.576 11.616 -1.785 12.297 -2 13 C-2.33 13.165 -2.33 13.165 -4 14 C-4.499 7.882 -3.249 4.975 0 0 Z " fill="#6EBA61" transform="translate(5,232)"/>
<path d="M0 0 C0 0.66 0 1.32 0 2 C-1.815 2.33 -1.815 2.33 -11 4 C-11.33 3.01 -11.66 2.02 -12 1 C-7.673 -1.229 -4.716 -0.925 0 0 Z " fill="#64A75D" transform="translate(138,227)"/>
<path d="M0 0 C0.99 0.33 1.98 0.66 3 1 C2.34 3.31 1.68 5.62 1 8 C0.01 8 -0.98 8 -2 8 C-2.66 9.32 -3.32 10.64 -4 12 C-4 9.36 -4 6.72 -4 4 C-3.01 4 -2.02 4 -1 4 C-0.67 2.68 -0.34 1.36 0 0 Z " fill="#489F3D" transform="translate(256,236)"/>
<path d="M0 0 C0.66 0.33 1.32 0.66 2 1 C1.67 2.98 1.34 4.96 1 7 C-0.812 7.625 -0.812 7.625 -3 8 C-3.99 7.34 -4.98 6.68 -6 6 C-6 5.34 -6 4.68 -6 4 C-5.381 3.897 -4.762 3.794 -4.125 3.688 C-2 3 -2 3 0 0 Z " fill="#6DB164" transform="translate(239,252)"/>
<path d="M0 0 C0.66 0 1.32 0 2 0 C2.33 3.96 2.66 7.92 3 12 C2.67 12.165 2.67 12.165 1 13 C1 12.01 1 11.02 1 10 C0.34 10 -0.32 10 -1 10 C-1.027 8.521 -1.046 7.042 -1.062 5.562 C-1.074 4.739 -1.086 3.915 -1.098 3.066 C-1 1 -1 1 0 0 Z " fill="#63B05D" transform="translate(123,238)"/>
<path d="M0 0 C1.32 0.66 2.64 1.32 4 2 C3.34 3.65 2.68 5.3 2 7 C0.02 7 -1.96 7 -4 7 C-2.926 4.085 -2.222 2.222 0 0 Z " fill="#70B46A" transform="translate(137,187)"/>
<path d="M0 0 C0.825 0.165 0.825 0.165 5 1 C5 1.66 5 2.32 5 3 C7.31 3 9.62 3 12 3 C11.67 3.99 11.34 4.98 11 6 C3.255 5.255 3.255 5.255 0 2 C0 1.34 0 0.68 0 0 Z " fill="#64A55A" transform="translate(53,119)"/>
<path d="M0 0 C2.051 0.033 4.102 0.065 6.152 0.098 C6.482 1.418 6.812 2.738 7.152 4.098 C5.874 4.16 4.595 4.221 3.277 4.285 C2.558 4.32 1.839 4.355 1.098 4.391 C0.456 4.294 -0.186 4.197 -0.848 4.098 C-1.508 3.108 -2.168 2.118 -2.848 1.098 C-1.848 0.098 -1.848 0.098 0 0 Z " fill="#4A9D3E" transform="translate(117.84765625,36.90234375)"/>
<path d="M0 0 C0 0.66 0 1.32 0 2 C-3.83 3.802 -6.781 4.196 -11 4 C-10.67 3.01 -10.34 2.02 -10 1 C-6.785 -0.607 -3.564 -0.057 0 0 Z " fill="#68AF5E" transform="translate(67,92)"/>
<path d="M0 0 C2.375 -0.188 2.375 -0.188 5 0 C5.66 0.99 6.32 1.98 7 3 C9.125 4.188 9.125 4.188 11 5 C10.67 5.33 10.34 5.66 10 6 C3.721 5.535 3.721 5.535 1.062 3.562 C0 2 0 2 0 0 Z " fill="#6DA968" transform="translate(154,35)"/>
<path d="M0 0 C1.65 0.99 3.3 1.98 5 3 C4.688 4.938 4.688 4.938 4 7 C3.01 7.33 2.02 7.66 1 8 C0.01 6.68 -0.98 5.36 -2 4 C-1.34 2.68 -0.68 1.36 0 0 Z " fill="#599F50" transform="translate(119,249)"/>
<path d="M0 0 C0.66 0.33 1.32 0.66 2 1 C1.441 4.243 0.587 5.931 -2 8 C-2.66 8 -3.32 8 -4 8 C-4 8.66 -4 9.32 -4 10 C-4.66 10 -5.32 10 -6 10 C-5.495 5.621 -2.822 3.183 0 0 Z " fill="#67A45D" transform="translate(259,230)"/>
<path d="M0 0 C0 0.66 0 1.32 0 2 C-1.65 2 -3.3 2 -5 2 C-5.33 3.65 -5.66 5.3 -6 7 C-6.99 6.34 -7.98 5.68 -9 5 C-8.67 3.35 -8.34 1.7 -8 0 C-4.947 -0.981 -3.053 -0.981 0 0 Z " fill="#6AAE65" transform="translate(238,218)"/>
<path d="M0 0 C0.66 0 1.32 0 2 0 C3.63 4.122 4.263 6.707 3 11 C2.01 11 1.02 11 0 11 C0 7.37 0 3.74 0 0 Z " fill="#77AF63" transform="translate(82,158)"/>
<path d="M0 0 C-0.33 0.99 -0.66 1.98 -1 3 C-3.957 4.478 -6.742 4.06 -10 4 C-9.67 3.01 -9.34 2.02 -9 1 C-6.043 -0.478 -3.258 -0.06 0 0 Z " fill="#63A45B" transform="translate(180,109)"/>
<path d="M0 0 C0.33 0 0.66 0 1 0 C1 5.61 1 11.22 1 17 C-0.98 17 -2.96 17 -5 17 C-5.33 16.34 -5.66 15.68 -6 15 C-4.02 14.67 -2.04 14.34 0 14 C0 9.38 0 4.76 0 0 Z " fill="#61A05E" transform="translate(286,244)"/>
<path d="M0 0 C1.98 0.66 3.96 1.32 6 2 C6 2.99 6 3.98 6 5 C-0.75 5.125 -0.75 5.125 -3 4 C-3 3.34 -3 2.68 -3 2 C-2.01 2 -1.02 2 0 2 C0 1.34 0 0.68 0 0 Z " fill="#409838" transform="translate(145,245)"/>
<path d="M0 0 C4.923 4.308 4.923 4.308 5.312 7.812 C5.209 8.534 5.106 9.256 5 10 C1.125 8.25 1.125 8.25 0 6 C-0.04 4 -0.043 2 0 0 Z " fill="#70A867" transform="translate(85,152)"/>
<path d="M0 0 C0.66 0 1.32 0 2 0 C2 2.31 2 4.62 2 7 C2.99 7.33 3.98 7.66 5 8 C4.67 9.32 4.34 10.64 4 12 C3.34 12 2.68 12 2 12 C-0.6 8.1 -0.151 4.526 0 0 Z " fill="#7CB575" transform="translate(48,106)"/>
<path d="M0 0 C-0.875 3.875 -0.875 3.875 -2 5 C-4.671 5.141 -7.324 5.042 -10 5 C-10 4.34 -10 3.68 -10 3 C-8.71 2.496 -7.418 1.997 -6.125 1.5 C-5.765 1.361 -5.765 1.361 -3.945 0.656 C-2 0 -2 0 0 0 Z " fill="#5E945A" transform="translate(278,250)"/>
<path d="M0 0 C0.99 0 1.98 0 3 0 C3 1.98 3 3.96 3 6 C1.35 6.33 -0.3 6.66 -2 7 C-2.125 4.625 -2.125 4.625 -2 2 C-1.34 1.34 -0.68 0.68 0 0 Z " fill="#71AF6B" transform="translate(176,228)"/>
<path d="M0 0 C3.63 0 7.26 0 11 0 C11 0.66 11 1.32 11 2 C7.785 3.607 4.564 3.057 1 3 C0.67 2.01 0.34 1.02 0 0 Z " fill="#439C37" transform="translate(126,34)"/>
<path d="M0 0 C-0.812 2.438 -0.812 2.438 -2 5 C-2.99 5.33 -3.98 5.66 -5 6 C-5.66 4.02 -6.32 2.04 -7 0 C-2.25 -1.125 -2.25 -1.125 0 0 Z " fill="#479E3A" transform="translate(213,53)"/>
<path d="M0 0 C1.98 0 3.96 0 6 0 C5.75 3.375 5.75 3.375 5 7 C2.938 8.438 2.938 8.438 1 9 C1.021 8.072 1.041 7.144 1.062 6.188 C1 3 1 3 0 0 Z " fill="#499B3F" transform="translate(170,228)"/>
<path d="M0 0 C0.598 0.206 1.196 0.412 1.812 0.625 C-0.5 3.125 -0.5 3.125 -3.188 5.625 C-4.177 5.625 -5.168 5.625 -6.188 5.625 C-5.875 3.75 -5.875 3.75 -5.188 1.625 C-2.188 -0.375 -2.188 -0.375 0 0 Z " fill="#62AF5E" transform="translate(107.1875,186.375)"/>
<path d="M0 0 C0.66 0 1.32 0 2 0 C2 2.64 2 5.28 2 8 C0.68 8 -0.64 8 -2 8 C-1.125 2.25 -1.125 2.25 0 0 Z " fill="#5EA956" transform="translate(73,79)"/>
<path d="M0 0 C0.625 2.875 0.625 2.875 1 6 C0.34 6.66 -0.32 7.32 -1 8 C-3.125 7.625 -3.125 7.625 -5 7 C-4.34 7 -3.68 7 -3 7 C-3.33 5.35 -3.66 3.7 -4 2 C-1 0 -1 0 0 0 Z " fill="#50A149" transform="translate(278,253)"/>
<path d="M0 0 C1.65 0.33 3.3 0.66 5 1 C5.33 1.99 5.66 2.98 6 4 C5.34 4 4.68 4 4 4 C4 4.66 4 5.32 4 6 C2.35 6 0.7 6 -1 6 C-0.67 4.02 -0.34 2.04 0 0 Z " fill="#419D37" transform="translate(260,230)"/>
<path d="M0 0 C0.485 0.01 0.485 0.01 2.938 0.062 C0.625 2.562 0.625 2.562 -2.062 5.062 C-3.053 5.062 -4.042 5.062 -5.062 5.062 C-3.938 0.08 -3.938 0.08 0 0 Z " fill="#63A85B" transform="translate(175.0625,199.9375)"/>
<path d="M0 0 C1.98 0 3.96 0 6 0 C6 1.32 6 2.64 6 4 C4.02 4.33 2.04 4.66 0 5 C0 3.35 0 1.7 0 0 Z " fill="#3E9D33" transform="translate(69,233)"/>
<path d="M0 0 C0 0.99 0 1.98 0 3 C-0.66 3 -1.32 3 -2 3 C-2.33 3.99 -2.66 4.98 -3 6 C-4.32 5.67 -5.64 5.34 -7 5 C-7 4.01 -7 3.02 -7 2 C-2.25 0 -2.25 0 0 0 Z " fill="#5AA84F" transform="translate(85,149)"/>
<path d="M0 0 C0 3.63 0 7.26 0 11 C-0.33 10.34 -0.66 9.68 -1 9 C-1.99 8.67 -2.98 8.34 -4 8 C-4.368 3.464 -4.368 3.464 -2.562 1.188 C-1 0 -1 0 0 0 Z " fill="#60A958" transform="translate(224,77)"/>
<path d="M0 0 C-0.33 1.65 -0.66 3.3 -1 5 C-1.825 4.67 -1.825 4.67 -6 3 C-6 2.01 -6 1.02 -6 0 C-2.25 -1.125 -2.25 -1.125 0 0 Z " fill="#3C9F2F" transform="translate(283,233)"/>
<path d="M0 0 C2.31 0 4.62 0 7 0 C7.33 0.99 7.66 1.98 8 3 C5.394 3.931 4.358 4.149 1.75 3.062 C1.172 2.712 0.595 2.361 0 2 C0 1.34 0 0.68 0 0 Z " fill="#67AD5E" transform="translate(84,187)"/>
<path d="M0 0 C1.333 2.667 0.671 4.167 0 7 C-0.99 6.835 -0.99 6.835 -6 6 C-6 5.01 -6 4.02 -6 3 C-5.196 2.691 -4.391 2.381 -3.562 2.062 C-1 1 -1 1 0 0 Z " fill="#449639" transform="translate(191,177)"/>
<path d="M0 0 C0.66 0 1.32 0 2 0 C4.042 2.905 5 4.401 5 8 C3.68 8.33 2.36 8.66 1 9 C0.67 6.03 0.34 3.06 0 0 Z " fill="#49A13C" transform="translate(74,78)"/>
<path d="M0 0 C2.125 0.938 2.125 0.938 4 2 C3.67 2.99 3.34 3.98 3 5 C1.02 5 -0.96 5 -3 5 C-2.625 3.062 -2.625 3.062 -2 1 C-1.34 0.67 -0.68 0.34 0 0 Z " fill="#459E37" transform="translate(196,45)"/>
<path d="M0 0 C0.99 0 1.98 0 3 0 C3.33 0.99 3.66 1.98 4 3 C3.01 3.33 2.02 3.66 1 4 C1 4.99 1 5.98 1 7 C-0.65 6.67 -2.3 6.34 -4 6 C-3.67 5.34 -3.34 4.68 -3 4 C-2.01 4 -1.02 4 0 4 C0 2.68 0 1.36 0 0 Z " fill="#79B171" transform="translate(193,42)"/>
<path d="M0 0 C0.66 0 1.32 0 2 0 C2 1.32 2 2.64 2 4 C2.66 4 3.32 4 4 4 C4 5.32 4 6.64 4 8 C2.68 7.67 1.36 7.34 0 7 C0 4.69 0 2.38 0 0 Z " fill="#43A333" transform="translate(188,246)"/>
<path d="M0 0 C0.66 0.33 1.32 0.66 2 1 C2 2.98 2 4.96 2 7 C0.68 7.33 -0.64 7.66 -2 8 C-1.125 1.125 -1.125 1.125 0 0 Z " fill="#61AA5C" transform="translate(280,242)"/>
<path d="M0 0 C2.64 0 5.28 0 8 0 C8.33 0.99 8.66 1.98 9 3 C5.625 3.188 5.625 3.188 2 3 C1.34 2.01 0.68 1.02 0 0 Z " fill="#74B163" transform="translate(199,227)"/>
<path d="M0 0 C1.32 0.33 2.64 0.66 4 1 C4 2.65 4 4.3 4 6 C2.02 5.34 0.04 4.68 -2 4 C-1.34 2.68 -0.68 1.36 0 0 Z " fill="#3F9A31" transform="translate(145,236)"/>
<path d="M0 0 C1.98 0 3.96 0 6 0 C6 0.66 6 1.32 6 2 C5.34 2 4.68 2 4 2 C3.67 2.99 3.34 3.98 3 5 C1.68 4.34 0.36 3.68 -1 3 C-0.67 2.01 -0.34 1.02 0 0 Z " fill="#429936" transform="translate(11,230)"/>
<path d="M0 0 C0.99 0 1.98 0 3 0 C2.34 1.98 1.68 3.96 1 6 C0.01 6 -0.98 6 -2 6 C-1.125 1.125 -1.125 1.125 0 0 Z " fill="#509944" transform="translate(87,37)"/>
<path d="M0 0 C0.66 1.32 1.32 2.64 2 4 C-1 6 -1 6 -5 6 C-5 5.34 -5 4.68 -5 4 C-4.361 3.711 -3.721 3.423 -3.062 3.125 C-1 2 -1 2 0 0 Z " fill="#68AE63" transform="translate(27,248)"/>
<path d="M0 0 C0.99 0.165 0.99 0.165 6 1 C5.67 2.32 5.34 3.64 5 5 C2.5 3.625 2.5 3.625 0 2 C0 1.34 0 0.68 0 0 Z " fill="#5FA656" transform="translate(68,229)"/>
<path d="M0 0 C0.66 0 1.32 0 2 0 C2 2.31 2 4.62 2 7 C1.01 7 0.02 7 -1 7 C-1.043 5 -1.041 3 -1 1 C-0.67 0.67 -0.34 0.34 0 0 Z " fill="#449B32" transform="translate(74,134)"/>
<path d="M0 0 C1.32 0.99 2.64 1.98 4 3 C3.67 4.32 3.34 5.64 3 7 C3 6.34 3 5.68 3 5 C1.68 5 0.36 5 -1 5 C-0.67 3.35 -0.34 1.7 0 0 Z " fill="#73B36D" transform="translate(214,67)"/>
<path d="M0 0 C0.66 0 1.32 0 2 0 C2 2.97 2 5.94 2 9 C1.01 8.01 0.02 7.02 -1 6 C-0.688 2.812 -0.688 2.812 0 0 Z " fill="#78AB73" transform="translate(78,250)"/>
<path d="M0 0 C0.66 0.33 0.66 0.33 4 2 C3.34 3.65 2.68 5.3 2 7 C1.34 7 0.68 7 0 7 C0 4.69 0 2.38 0 0 Z " fill="#3F9F34" transform="translate(50,235)"/>
<path d="M0 0 C2.125 0.375 2.125 0.375 4 1 C2.68 2.32 1.36 3.64 0 5 C-0.66 4.01 -1.32 3.02 -2 2 C-1.34 1.34 -0.68 0.68 0 0 Z " fill="#429537" transform="translate(235,252)"/>
</svg>
