<?xml version="1.0" encoding="UTF-8"?>
<!-- Generator: visioncortex VTracer 0.6.12 -->
<svg version="1.1" xmlns="http://www.w3.org/2000/svg" width="500" height="500">
<path d="M0 0 C5.089 2.012 6.68 5.277 9 10 C9.13 10.685 9.261 11.371 9.395 12.077 C10.19 14.605 11.14 15.061 13.43 16.332 C14.137 16.735 14.845 17.137 15.574 17.552 C16.333 17.968 17.093 18.384 17.875 18.812 C19.437 19.698 20.998 20.584 22.559 21.473 C22.94 21.688 22.94 21.688 24.871 22.778 C27.615 24.353 30.28 26.033 32.938 27.75 C46.539 36.513 46.539 36.513 51 38 C51.66 37.67 52.32 37.34 53 37 C58.269 36.401 60.885 37.746 65 41 C66.183 43.366 66.134 44.868 66.125 47.5 C66.128 48.294 66.13 49.088 66.133 49.906 C66 52 66 52 65 54 C64.34 54 63.68 54 63 54 C63 54.66 63 55.32 63 56 C61.68 56.33 60.36 56.66 59 57 C58.724 60.062 58.478 63.122 58.25 66.188 C58.209 66.62 58.209 66.62 58.004 68.807 C57.552 75.352 57.552 75.352 59.957 78.832 C60.631 79.547 61.305 80.263 62 81 C62.496 83.281 62.496 83.281 62.438 85.5 C62.437 85.866 62.437 85.866 62.434 87.719 C62 90 62 90 60.367 92.332 C58.411 96.15 59.431 98.159 60.688 102.188 C62.28 107.452 63.57 112.59 64.312 118.047 C65.23 120.654 66.781 121.443 69 123 C69 123.66 69 124.32 69 125 C69.66 125 70.32 125 71 125 C72.621 128.242 72.559 131.496 72 135 C70.114 138.241 68.773 140.501 65.027 141.555 C63.028 141.801 61.012 141.904 59 142 C54.917 142.494 52.969 144.636 50.062 147.438 C42.713 154.336 34.832 160.488 26.43 166.051 C25.654 166.572 24.878 167.094 24.079 167.631 C22.556 168.649 21.021 169.648 19.472 170.626 C14.194 174.165 14.194 174.165 13.145 178.684 C13.097 179.778 13.049 180.872 13 182 C10.452 185.552 8.316 187.234 4.062 188 C-0.007 188.261 -2.615 187.361 -6 185 C-6.189 184.585 -6.189 184.585 -7.145 182.484 C-9 180 -9 180 -12.773 178.961 C-14.305 178.745 -15.839 178.551 -17.375 178.375 C-19.017 178.145 -20.659 177.912 -22.301 177.676 C-23.106 177.564 -23.911 177.453 -24.741 177.338 C-27.72 176.892 -30.632 176.257 -33.562 175.562 C-34.068 175.444 -34.068 175.444 -36.629 174.844 C-39.234 174.192 -41.816 173.5 -44.402 172.781 C-44.783 172.68 -44.783 172.68 -46.711 172.17 C-48.205 171.773 -49.695 171.357 -51.178 170.918 C-53.25 170.379 -53.25 170.379 -57 170 C-59.75 171.777 -59.75 171.777 -62 174 C-66.237 176.549 -70.165 176.673 -75 176 C-79.839 173.626 -82.523 170.77 -85 166 C-86.785 159.998 -85.445 156.705 -83 151 C-83.292 145.152 -84.698 140.836 -87.5 135.688 C-88.23 134.306 -88.956 132.923 -89.68 131.539 C-90.06 130.812 -90.44 130.086 -90.831 129.337 C-92.077 126.847 -93.206 124.325 -94.32 121.773 C-94.705 120.906 -95.09 120.039 -95.486 119.146 C-96.234 117.449 -96.965 115.744 -97.678 114.032 C-98.655 111.851 -99.567 109.913 -101 108 C-104.082 107.062 -104.082 107.062 -107 107 C-112.433 104.228 -115.607 100.534 -118 95 C-118.985 91.179 -118.698 88.39 -116.926 84.859 C-113.598 79.937 -109.717 76.756 -104 75 C-103.113 75.082 -102.226 75.165 -101.312 75.25 C-99 75 -99 75 -97.797 73.656 C-93.986 67.771 -91.07 61.291 -88 55 C-87.002 52.999 -86.002 50.999 -85 49 C-84.34 49 -83.68 49 -83 49 C-81.419 44.679 -80.449 40.585 -80 36 C-80.33 35.67 -80.66 35.34 -81 35 C-81.574 30.004 -81.553 26.085 -79.25 21.562 C-75.156 16.9 -72.43 15.437 -66.246 14.93 C-62.001 15.063 -59.061 16.939 -56.125 19.875 C-55.424 20.246 -54.722 20.618 -54 21 C-52.121 20.325 -50.244 19.639 -48.39 18.899 C-44.042 17.263 -39.546 16.137 -35.062 14.938 C-34.594 14.81 -34.594 14.81 -32.221 14.162 C-27.088 12.775 -21.989 11.536 -16.751 10.615 C-15 10 -15 10 -13.25 7.125 C-12.837 6.094 -12.425 5.062 -12 4 C-8.182 -0.03 -5.483 -0.685 0 0 Z M-25.754 18.645 C-27.02 18.992 -28.287 19.339 -29.592 19.697 C-29.918 19.789 -29.918 19.789 -31.568 20.253 C-33.557 20.811 -35.551 21.353 -37.545 21.893 C-48.751 25.004 -48.751 25.004 -53 28 C-53.715 30.086 -53.715 30.086 -53.938 32.375 C-54.656 36.279 -55.617 38.701 -58.961 41.172 C-61.684 42.278 -64.069 42.206 -67 42.25 C-72.437 42.557 -72.437 42.557 -74.758 44.383 C-76.437 46.83 -77.693 49.331 -79 52 C-79.854 53.587 -80.714 55.172 -81.578 56.754 C-83.415 60.146 -85.24 63.544 -87.023 66.965 C-87.404 67.693 -87.785 68.421 -88.177 69.172 C-89 71 -89 71 -89 73 C-89.66 73 -90.32 73 -91 73 C-91.75 76.188 -91.75 76.188 -92 80 C-90.677 81.675 -89.343 83.341 -88 85 C-86.661 89.619 -86.736 93.167 -88.188 97.75 C-89.89 100.803 -91.696 103.378 -94 106 C-81.687 138.239 -81.687 138.239 -75 145 C-72.061 145.814 -70.117 145.396 -67 145 C-62.131 146.719 -58.494 149.436 -56 154 C-55.047 157.303 -54.451 160.594 -54 164 C-44.168 167.129 -34.239 169.648 -24 171 C-22.312 171.372 -20.624 171.747 -18.938 172.125 C-14.985 172.917 -11.909 173.303 -8 172 C-5.625 170.062 -5.625 170.062 -4 168 C-4 167.34 -4 166.68 -4 166 C-2.396 165.946 -0.792 165.907 0.812 165.875 C1.706 165.852 2.599 165.829 3.52 165.805 C6 166 6 166 9 168 C13.135 167.665 16.378 165.937 20 164 C20 163.34 20 162.68 20 162 C20.516 161.752 21.031 161.505 21.562 161.25 C24.772 159.604 27.876 157.802 31 156 C31 155.34 31 154.68 31 154 C31.568 153.74 32.137 153.479 32.723 153.211 C35.197 151.895 37.244 150.366 39.438 148.625 C39.83 148.314 39.83 148.314 41.816 146.738 C42.177 146.451 42.177 146.451 44 145 C44.949 144.278 45.898 143.556 46.875 142.812 C50.802 139.463 50.802 139.463 52 137 C51.869 135.515 51.674 134.035 51.438 132.562 C50.873 128.917 50.802 128.328 52.812 125 C55 123 55 123 57 122 C57.199 115.276 57.225 109.428 55 103 C54.612 101.524 54.237 100.045 53.875 98.562 C53.731 97.975 53.731 97.975 53 95 C52.443 94.876 52.443 94.876 49.625 94.25 C46 93 46 93 44.688 90.938 C44.461 90.298 44.234 89.659 44 89 C39.771 86.885 34.272 87.682 29.625 87.625 C28.475 87.588 27.325 87.55 26.141 87.512 C17.627 87.422 17.627 87.422 14.398 90.398 C14.168 90.828 14.168 90.828 13 93 C8.764 95.824 4.975 95.667 0 95 C-2.934 93.204 -4.472 92.056 -6 89 C-6.438 84.712 -6.449 81.056 -4.75 77.062 C-1.858 73.654 -0.021 73.093 4.438 72.688 C8.209 73.018 9.929 73.894 13 76 C13.66 76 14.32 76 15 76 C15.227 76.784 15.454 77.567 15.688 78.375 C17 81 17 81 19.25 82.15 C23.954 83.604 28.56 83.218 33.438 83.062 C34.462 83.064 35.486 83.066 36.541 83.068 C43.864 82.836 43.864 82.836 47.028 80.507 C50.77 76.328 51.927 72.617 52 67 C52.061 66.219 52.121 65.438 52.184 64.633 C52.511 58.579 52.511 58.579 50.125 55.875 C49.424 55.256 48.722 54.637 48 54 C46.599 50.077 46 47.178 46 43 C45.136 42.586 44.273 42.172 43.383 41.746 C40.053 40.027 37.002 38.125 33.875 36.062 C32.653 35.276 31.431 34.491 30.207 33.707 C27.967 32.271 25.735 30.825 23.513 29.361 C20.879 27.631 18.223 25.939 15.562 24.25 C14.723 23.688 13.883 23.126 13.017 22.547 C7.067 18.829 7.067 18.829 3.955 19.328 C2.094 20.141 2.094 20.141 -1 22 C-4.062 22.5 -4.062 22.5 -7 22 C-9 20.333 -11 18.667 -13 17 C-17.539 16.575 -21.386 17.446 -25.754 18.645 Z " fill="#48A13B" transform="translate(273,112)"/>
<path d="M0 0 C5.46 2.886 8.832 6.142 11 12 C11.346 15.635 11.284 19.227 11.188 22.875 C11.181 23.362 11.181 23.362 11.146 25.828 C11.111 28.219 11.062 30.609 11 33 C8.69 33 6.38 33 4 33 C4 32.34 4 31.68 4 31 C3.288 31.324 2.577 31.647 1.844 31.98 C-3.516 33.902 -9.564 33.953 -14.875 31.875 C-19.404 27.879 -22.796 24.018 -24 18 C-23.99 13.055 -23.237 8.864 -20 5 C-13.436 0.162 -8.104 -2.121 0 0 Z M-14.875 10.625 C-16.691 14.459 -16.316 18.014 -15 22 C-12.027 24.834 -10.013 25.81 -6 26.562 C-1.766 25.769 0.11 24.159 3 21 C4.177 17.123 4.4 15.036 2.938 11.25 C0.559 8.488 -1.627 7.335 -5 6 C-9.311 6 -11.679 7.855 -14.875 10.625 Z " fill="#53A14A" transform="translate(315,323)"/>
<path d="M0 0 C4.845 2.602 8.282 5.687 10.375 10.812 C10.618 13.178 10.618 13.178 10.605 15.762 C10.604 16.692 10.602 17.622 10.6 18.58 C10.593 19.062 10.593 19.062 10.562 21.5 C10.562 22.475 10.561 23.45 10.561 24.455 C10.515 31.672 10.515 31.672 9.375 32.812 C6.31 32.974 4.32 32.794 1.375 31.812 C1.045 31.978 1.045 31.978 -0.625 32.812 C-6.08 33.311 -10.995 33.524 -16.062 31.312 C-20.833 26.659 -23.889 22.522 -24.188 15.688 C-23.86 9.755 -21.493 6.494 -17.125 2.562 C-11.279 -1.529 -7.025 -2.301 0 0 Z M-14.625 9.812 C-16.866 13.174 -16.91 14.868 -16.293 18.805 C-15.044 22.558 -12.987 23.783 -9.625 25.812 C-5.407 26.691 -3.989 26.039 -0.312 23.75 C2.375 20.812 2.375 20.812 3.562 17.438 C3.319 12.734 1.588 10.168 -1.625 6.812 C-6.928 4.161 -10.636 5.934 -14.625 9.812 Z " fill="#469E3B" transform="translate(383.625,323.1875)"/>
<path d="M0 0 C4.202 3.183 6.56 6.779 7.527 11.949 C7.979 17.724 6.278 21.414 2.832 25.996 C-1.002 30.273 -4.687 31.069 -10.234 31.383 C-15.914 31.213 -19.638 29.656 -23.859 25.883 C-27.577 21.594 -29.132 17.516 -28.859 11.883 C-26.732 4.911 -23.008 0.814 -16.672 -2.617 C-10.566 -5.131 -5.469 -3.286 0 0 Z M-18.859 7.883 C-20.422 10.695 -20.422 10.695 -20.859 13.883 C-19.751 17.517 -18.648 20.04 -16.047 22.82 C-13.033 24.284 -11.182 24.348 -7.859 23.883 C-2.28 20.725 -2.28 20.725 -0.859 17.883 C-0.28 14.149 0.171 10.437 -1.988 7.18 C-4.445 4.948 -6.62 3.928 -9.859 3.32 C-13.747 4.049 -15.868 5.299 -18.859 7.883 Z " fill="#46A03A" transform="translate(136.859375,325.1171875)"/>
<path d="M0 0 C0.155 0.34 0.155 0.34 0.938 2.062 C2 4 2 4 4.066 4.621 C4.704 4.746 5.343 4.871 6 5 C5.79 16.798 5.79 16.798 2.875 20.688 C-2.788 25.243 -10.049 24.126 -17 24 C-17.268 24.969 -17.536 25.939 -17.812 26.938 C-18.204 27.948 -18.596 28.959 -19 30 C-19.495 30.165 -19.495 30.165 -22 31 C-21.794 29.804 -21.588 28.608 -21.375 27.375 C-20.861 23.348 -21.69 20.852 -23 17 C-23.59 11.93 -23.591 8.162 -21.25 3.562 C-15.318 -3.193 -7.999 -5.333 0 0 Z " fill="#449F35" transform="translate(215,130)"/>
<path d="M0 0 C3.941 2.204 6.485 4.465 8.875 8.375 C10.264 13.988 10.456 19.091 7.875 24.375 C5.139 28.576 2.628 30.733 -2.125 32.375 C-9.25 33.258 -14.4 32.814 -20.125 28.375 C-23.89 24.015 -25.224 20.04 -25.125 14.375 C-24.187 9.346 -22.804 5.958 -19.125 2.375 C-12.838 -1.816 -7.122 -3.174 0 0 Z M-16.125 9.375 C-17.424 13.673 -17.628 17.131 -15.938 21.312 C-13.971 23.55 -12.994 24.578 -10.125 25.375 C-5.865 25.298 -3.696 24.797 -0.25 22.25 C2.331 18.759 2.952 16.71 2.875 12.375 C0.84 9.104 -0.917 7.514 -4.125 5.375 C-9.501 4.778 -12.59 5.112 -16.125 9.375 Z " fill="#3EA533" transform="translate(248.125,323.625)"/>
<path d="M0 0 C4.154 3.257 5.811 7.181 6.574 12.234 C6.689 14.399 6.749 16.567 6.762 18.734 C6.776 19.838 6.79 20.941 6.805 22.078 C6.575 25.217 5.909 27.406 4.574 30.234 C2.594 30.234 0.614 30.234 -1.426 30.234 C-1.451 29.614 -1.476 28.993 -1.502 28.354 C-1.618 25.543 -1.74 22.733 -1.863 19.922 C-1.903 18.945 -1.942 17.969 -1.982 16.963 C-2.024 16.025 -2.066 15.087 -2.109 14.121 C-2.146 13.257 -2.183 12.393 -2.22 11.503 C-2.426 9.234 -2.426 9.234 -3.426 6.234 C-6.148 4.14 -7.51 4.242 -10.988 4.547 C-14.426 5.234 -14.426 5.234 -17.426 6.234 C-18.486 13.924 -18.525 21.479 -18.426 29.234 C-20.752 29.615 -23.086 29.947 -25.426 30.234 C-27.629 28.032 -26.611 23.066 -26.613 20.109 C-26.626 19.266 -26.638 18.423 -26.65 17.555 C-26.666 10.911 -26.529 5.386 -21.676 0.422 C-14.233 -4.588 -7.633 -4.734 0 0 Z " fill="#509F46" transform="translate(180.42578125,325.765625)"/>
<path d="M0 0 C3.227 2.296 4.41 3.908 6.25 7.312 C7.24 7.643 8.23 7.972 9.25 8.312 C9.25 8.972 9.25 9.632 9.25 10.312 C15.52 10.643 21.79 10.972 28.25 11.312 C28.25 11.972 28.25 12.632 28.25 13.312 C20 13.312 11.75 13.312 3.25 13.312 C2.92 14.468 2.92 14.468 1.25 20.312 C-2.992 23.14 -6.769 23.094 -11.75 22.312 C-14.873 20.632 -17.142 18.529 -18.75 15.312 C-19.327 10.582 -19.184 7.165 -17 2.875 C-12.266 -2.516 -6.482 -3.385 0 0 Z " fill="#449F36" transform="translate(284.75,185.6875)"/>
<path d="M0 0 C1.5 1 1.5 1 3 3 C3.273 5.718 3.135 8.257 3 11 C5.31 11 7.62 11 10 11 C10 12.98 10 14.96 10 17 C8.02 17.33 6.04 17.66 4 18 C3.093 23.646 2.537 28.424 4 34 C5.739 35.572 7.442 36.685 9.504 37.797 C9.998 38.194 10.491 38.591 11 39 C11 40.32 11 41.64 11 43 C6.739 44.023 4.708 44.367 0.75 42.312 C-4.718 37.715 -4.718 37.715 -5.331 33.991 C-5.519 31.576 -5.621 29.172 -5.688 26.75 C-5.722 25.91 -5.756 25.069 -5.791 24.203 C-5.873 22.136 -5.938 20.068 -6 18 C-6.99 17.67 -7.98 17.34 -9 17 C-9.33 15.35 -9.66 13.7 -10 12 C-8.68 11.67 -7.36 11.34 -6 11 C-6 8.03 -6 5.06 -6 2 C-4.02 1.34 -2.04 0.68 0 0 Z " fill="#47A13C" transform="translate(204,312)"/>
<path d="M0 0 C0.485 0.01 0.485 0.01 2.938 0.062 C3.939 3.067 4.452 5.94 4.938 9.062 C7.248 9.392 9.558 9.723 11.938 10.062 C11.938 12.043 11.938 14.022 11.938 16.062 C9.475 17.294 7.658 17.134 4.938 17.062 C4.044 22.999 3.967 28.132 4.938 34.062 C5.721 34.372 6.505 34.681 7.312 35 C9.938 36.062 9.938 36.062 11.938 37.062 C11.98 38.729 11.978 40.396 11.938 42.062 C11.608 42.392 11.277 42.722 10.938 43.062 C6.196 42.904 3.872 42.773 0.062 39.875 C-4.53 33.796 -4.141 28.285 -3.645 20.988 C-4.062 18.062 -4.062 18.062 -6.574 16.168 C-7.395 15.803 -8.216 15.438 -9.062 15.062 C-8.812 12.75 -8.812 12.75 -8.062 10.062 C-7.382 9.588 -6.701 9.114 -6 8.625 C-5.361 8.109 -4.721 7.594 -4.062 7.062 C-3.875 3.938 -3.875 3.938 -4.062 1.062 C-3.062 0.062 -3.062 0.062 0 0 Z " fill="#5FA857" transform="translate(341.0625,312.9375)"/>
<path d="M0 0 C4.553 1.636 9.277 3.915 12 8 C12.318 10.757 12.186 13.208 12 16 C11.67 15.34 11.34 14.68 11 14 C10.093 13.897 9.185 13.794 8.25 13.688 C5 13 5 13 2.562 10.438 C0 8 0 8 -3.562 7.5 C-8.848 8.269 -8.848 8.269 -11 11 C-12.059 15.254 -12.172 19.07 -11.375 23.375 C-11.251 24.241 -11.127 25.108 -11 26 C-12.438 27.875 -12.438 27.875 -14 29 C-14.454 28.216 -14.907 27.433 -15.375 26.625 C-17 24 -17 24 -19 22 C-19.195 19.617 -19.195 19.617 -19.125 16.875 C-19.107 15.965 -19.089 15.055 -19.07 14.117 C-19.047 13.419 -19.024 12.72 -19 12 C-18.01 11.67 -17.02 11.34 -16 11 C-15.711 9.886 -15.423 8.772 -15.125 7.625 C-14 4 -14 4 -11.5 2.125 C-10.675 1.754 -9.85 1.382 -9 1 C-5.871 -0.564 -3.473 -0.28 0 0 Z " fill="#49A33D" transform="translate(244,322)"/>
<path d="M0 0 C0 0.99 0 1.98 0 3 C-0.66 3 -1.32 3 -2 3 C-1.938 3.722 -1.876 4.444 -1.812 5.188 C-2.037 8.562 -3.194 10.183 -5 13 C-5.688 15.312 -5.688 15.312 -6 17 C-6.66 16.34 -7.32 15.68 -8 15 C-10.778 14.436 -13.511 13.969 -16.312 13.562 C-27.152 11.871 -37.645 9.686 -48 6 C-47.34 5.67 -46.68 5.34 -46 5 C-45.67 4.01 -45.34 3.02 -45 2 C-41.257 0.164 -38.028 1.679 -34.25 2.875 C-29.081 4.435 -24.362 5.521 -19 6 C-17.969 6.186 -16.938 6.371 -15.875 6.562 C-12.875 7.019 -10.03 7.072 -7 7 C-6.67 6.01 -6.34 5.02 -6 4 C-3.999 1.635 -3.032 1.011 0 0 Z " fill="#56A44C" transform="translate(272,277)"/>
<path d="M0 0 C0.33 1.65 0.66 3.3 1 5 C0.362 5.315 -0.276 5.629 -0.934 5.953 C-1.76 6.381 -2.586 6.809 -3.438 7.25 C-4.261 7.668 -5.085 8.085 -5.934 8.516 C-8.443 10.319 -8.471 11.039 -9 14 C-9.129 15.428 -9.222 16.86 -9.281 18.293 C-9.319 19.088 -9.356 19.882 -9.395 20.701 C-9.465 22.37 -9.536 24.04 -9.605 25.709 C-9.898 31.898 -9.898 31.898 -11 33 C-13 33.041 -15 33.043 -17 33 C-19.326 26.022 -19.164 15.338 -16.938 8.25 C-12.686 1.119 -8.101 -0.711 0 0 Z " fill="#479A3D" transform="translate(285,323)"/>
<path d="M0 0 C2.31 0.33 4.62 0.66 7 1 C7 1.66 7 2.32 7 3 C8.32 3.66 9.64 4.32 11 5 C11 7.31 11 9.62 11 12 C10.34 12 9.68 12 9 12 C9.33 12.99 9.66 13.98 10 15 C9.196 15.124 8.391 15.248 7.562 15.375 C6.717 15.581 5.871 15.787 5 16 C4.67 16.66 4.34 17.32 4 18 C1.69 17.67 -0.62 17.34 -3 17 C-3 16.34 -3 15.68 -3 15 C-3.99 15 -4.98 15 -6 15 C-6 14.34 -6 13.68 -6 13 C-8.31 12.67 -10.62 12.34 -13 12 C-11.688 10.5 -11.688 10.5 -10 9 C-9.01 9 -8.02 9 -7 9 C-6.938 8.402 -6.876 7.804 -6.812 7.188 C-5.677 4.131 -3.788 3.534 -1 2 C-0.67 1.34 -0.34 0.68 0 0 Z " fill="#43A134" transform="translate(270,115)"/>
<path d="M0 0 C3.608 2.733 5.673 5.643 7.141 9.883 C7.363 12.902 7.322 15.862 7.141 18.883 C6.811 18.883 6.481 18.883 6.141 18.883 C6.141 16.243 6.141 13.603 6.141 10.883 C5.481 10.883 4.821 10.883 4.141 10.883 C1.141 6.498 1.141 6.498 1.141 3.883 C0.811 4.048 0.811 4.048 -0.859 4.883 C-1.484 6.945 -1.484 6.945 -1.859 8.883 C-2.561 8.223 -3.262 7.563 -3.984 6.883 C-7.374 4.524 -8.816 4.377 -12.859 4.883 C-13.726 5.254 -14.592 5.625 -15.484 6.008 C-17.859 6.883 -17.859 6.883 -19.984 5.945 C-20.603 5.595 -21.222 5.244 -21.859 4.883 C-22.849 5.213 -23.839 5.543 -24.859 5.883 C-24.983 6.605 -25.107 7.327 -25.234 8.07 C-25.85 10.84 -26.744 13.28 -27.859 15.883 C-29.186 12.867 -28.784 11.652 -27.734 8.445 C-24.871 2.463 -20.385 -1.089 -14.328 -3.582 C-9.093 -4.717 -4.461 -2.68 0 0 Z " fill="#69A761" transform="translate(136.859375,325.1171875)"/>
<path d="M0 0 C2.625 2.625 2.625 2.625 3 5.117 C3 7.647 2.884 10.11 2.625 12.625 C-2.152 13.762 -4.802 13.216 -9.375 11.625 C-11.625 12 -11.625 12 -13.375 12.625 C-14.035 12.625 -14.695 12.625 -15.375 12.625 C-15.536 2.948 -15.536 2.948 -14.375 0.625 C-9.438 -2.196 -5.182 -2.111 0 0 Z " fill="#47A138" transform="translate(335.375,150.375)"/>
<path d="M0 0 C0.66 0 1.32 0 2 0 C4.296 2.561 5 3.48 5 7 C5.66 7 6.32 7 7 7 C7.462 12.103 7.825 16.545 4.875 20.938 C1.613 24.78 -1.473 26.655 -6.547 27.348 C-13.41 27.717 -17.658 26.285 -23 22 C-20.333 20.667 -18.833 21.329 -16 22 C-16 22.66 -16 23.32 -16 24 C-15.237 24 -14.474 24 -13.688 24 C-11.792 24 -9.896 24 -8 24 C-8 23.34 -8 22.68 -8 22 C-4.7 22 -1.4 22 2 22 C2 21.34 2 20.68 2 20 C0.35 19.67 -1.3 19.34 -3 19 C-3.33 19.66 -3.66 20.32 -4 21 C-4.99 20.34 -5.98 19.68 -7 19 C-6.196 18.546 -5.391 18.092 -4.562 17.625 C-2 16 -2 16 -1 14 C-0.954 11.813 -0.962 9.625 -1 7.438 C-1.038 5.292 -1.047 3.145 -1 1 C-0.67 0.67 -0.34 0.34 0 0 Z " fill="#5C9B53" transform="translate(136,329)"/>
<path d="M0 0 C1.98 0.66 3.96 1.32 6 2 C6 2.66 6 3.32 6 4 C7.258 3.876 8.516 3.752 9.812 3.625 C10.52 3.555 11.228 3.486 11.957 3.414 C14 3 14 3 17 1 C17 4 17 4 16 7 C16.66 7 17.32 7 18 7 C18.66 6.01 19.32 5.02 20 4 C21.21 6.652 22.417 9.306 23.621 11.961 C24.484 13.864 25.351 15.765 26.223 17.664 C26.582 18.456 26.942 19.247 27.312 20.062 C27.476 20.419 27.476 20.419 28.301 22.223 C29 24 29 24 29 26 C28.34 26.33 27.68 26.66 27 27 C26.375 30.062 26.375 30.062 26 33 C24.171 30.256 22.927 27.72 21.609 24.711 C21.147 23.687 20.684 22.664 20.207 21.609 C19.235 19.452 18.28 17.288 17.34 15.117 C16.872 14.096 16.404 13.075 15.922 12.023 C15.505 11.084 15.088 10.145 14.659 9.177 C13 7 13 7 10.024 6.307 C9.026 6.206 8.028 6.104 7 6 C1.347 2.693 1.347 2.693 0 0 Z " fill="#539B48" transform="translate(159,213)"/>
<path d="M0 0 C2.64 0 5.28 0 8 0 C7.67 1.32 7.34 2.64 7 4 C5.35 4.33 3.7 4.66 2 5 C2.841 20.559 2.841 20.559 5.691 24.102 C7.625 25.312 7.625 25.312 11 27 C11 28.32 11 29.64 11 31 C6.686 32.035 4.66 32.33 0.625 30.312 C-2.141 27.876 -2.459 27.429 -3 24 C-3.065 22.418 -3.086 20.833 -3.062 19.25 C-3.053 18.451 -3.044 17.652 -3.035 16.828 C-3.024 16.225 -3.012 15.622 -3 15 C-2.01 15 -1.02 15 0 15 C-0.084 14.252 -0.168 13.505 -0.254 12.734 C-0.356 11.75 -0.458 10.765 -0.562 9.75 C-0.667 8.775 -0.771 7.801 -0.879 6.797 C-0.99 4.237 -0.777 2.419 0 0 Z " fill="#429F35" transform="translate(204,324)"/>
<path d="M0 0 C0.165 0.495 0.165 0.495 1 3 C-1.64 3.33 -4.28 3.66 -7 4 C-7 4.66 -7 5.32 -7 6 C-10.624 7.171 -14.249 8.336 -17.875 9.5 C-18.391 9.667 -18.391 9.667 -21.004 10.512 C-21.99 10.828 -22.976 11.143 -23.992 11.469 C-24.903 11.762 -25.815 12.055 -26.753 12.357 C-29 13 -29 13 -31 13 C-31 11.68 -31 10.36 -31 9 C-32.65 8.67 -34.3 8.34 -36 8 C-36 7.01 -36 6.02 -36 5 C-35.505 5.33 -35.505 5.33 -33 7 C-31.108 6.358 -29.221 5.697 -27.375 4.934 C-18.559 1.468 -9.466 -0.237 0 0 Z " fill="#6AAC61" transform="translate(252,126)"/>
<path d="M0 0 C0.99 0 1.98 0 3 0 C5.457 7.863 5.623 15.827 6 24 C4.02 24 2.04 24 0 24 C0 23.34 0 22.68 0 22 C-2.97 22 -5.94 22 -9 22 C-9 21.01 -9 20.02 -9 19 C-8.34 19 -7.68 19 -7 19 C-7 18.01 -7 17.02 -7 16 C-6.216 15.526 -5.433 15.051 -4.625 14.562 C-0.504 10.54 -0.585 5.556 0 0 Z " fill="#51A045" transform="translate(319,332)"/>
<path d="M0 0 C1.65 0 3.3 0 5 0 C-3.121 8.296 -12.065 15.024 -22 21 C-22.66 20.01 -23.32 19.02 -24 18 C-26.125 17.312 -26.125 17.312 -28 17 C-23.25 14 -23.25 14 -21 14 C-21 13.34 -21 12.68 -21 12 C-19.102 10.492 -19.102 10.492 -16.625 8.875 C-15.813 8.336 -15.001 7.797 -14.164 7.242 C-12 6 -12 6 -10 6 C-10 5.34 -10 4.68 -10 4 C-7.5 2.375 -7.5 2.375 -5 1 C-5.33 2.65 -5.66 4.3 -6 6 C-5.34 6 -4.68 6 -4 6 C-4 4.68 -4 3.36 -4 2 C-3.01 2 -2.02 2 -1 2 C-0.67 1.34 -0.34 0.68 0 0 Z " fill="#5AA050" transform="translate(314,262)"/>
<path d="M0 0 C2 1.375 2 1.375 3 3 C2.688 5.688 2.688 5.688 2 8 C1.71 7.892 1.71 7.892 0.242 7.344 C-4.294 5.727 -8.111 4.511 -13 5 C-13.33 5.33 -13.66 5.66 -14 6 C-16.333 6.041 -18.667 6.042 -21 6 C-21.33 6.66 -21.66 7.32 -22 8 C-22.66 7.34 -23.32 6.68 -24 6 C-23.381 5.959 -22.762 5.918 -22.125 5.875 C-21.424 5.586 -20.723 5.298 -20 5 C-19.321 3.004 -18.654 1.004 -18 -1 C-12.608 -5.393 -5.507 -2.859 0 0 Z " fill="#589D50" transform="translate(387,325)"/>
<path d="M0 0 C0.66 0.66 1.32 1.32 2 2 C1.625 5.125 1.625 5.125 1 8 C1.66 8 2.32 8 3 8 C3 8.66 3 9.32 3 10 C3.743 10.124 4.485 10.248 5.25 10.375 C7.801 10.955 9.727 11.737 12 13 C12.043 14.666 12.041 16.334 12 18 C11.67 18.33 11.34 18.66 11 19 C6.259 18.842 3.934 18.711 0.125 15.812 C-2.158 12.79 -3.316 10.726 -4 7 C-3.25 3.688 -3.25 3.688 -2 1 C-1.34 0.67 -0.68 0.34 0 0 Z " fill="#45A03B" transform="translate(341,337)"/>
<path d="M0 0 C6.291 0.029 10.274 1.32 15.273 5.137 C20.567 10.85 20.382 16.516 20.188 23.875 C20.181 24.362 20.181 24.362 20.146 26.828 C20.111 29.219 20.062 31.609 20 34 C17.216 31.216 17.633 29.263 17.438 25.375 C17.14 20.204 16.718 15.128 16 10 C13.489 11.255 13.129 12.501 12 15 C11.608 14.216 11.216 13.433 10.812 12.625 C8.757 9.648 7.403 9.012 4 8 C4.619 7.918 5.238 7.835 5.875 7.75 C8 7 8 7 9.25 4.938 C9.374 4.618 9.374 4.618 10 3 C8.907 3.062 7.814 3.124 6.688 3.188 C3 3 3 3 1.27 1.488 C1.06 1.243 1.06 1.243 0 0 Z " fill="#69AD62" transform="translate(306,322)"/>
<path d="M0 0 C1.701 0.971 3.352 2.03 4.992 3.102 C4.332 3.432 4.332 3.432 0.992 5.102 C0.332 4.442 -0.328 3.782 -1.008 3.102 C-5.22 2.79 -8.452 2.689 -12.008 5.102 C-12.606 5.473 -13.204 5.844 -13.82 6.227 C-15.485 8.856 -15.35 11.149 -14.828 14.156 C-13.5 17.305 -11.492 18.281 -8.418 19.559 C-4.198 20.509 -0.215 19.895 3.992 19.102 C2.227 21.669 0.805 22.944 -2.289 23.543 C-6.773 23.752 -10.01 23.632 -13.57 20.727 C-17.155 16.866 -17.351 14.531 -17.293 9.426 C-16.854 5.851 -15.349 3.768 -13.008 1.102 C-9.219 -1.773 -4.313 -1.93 0 0 Z " fill="#5B9E51" transform="translate(283.0078125,184.8984375)"/>
<path d="M0 0 C0.825 0.33 0.825 0.33 5 2 C4.505 3.196 4.01 4.392 3.5 5.625 C1.705 10.435 1.601 14.151 2.688 19.188 C3 22 3 22 1.562 23.875 C1.047 24.246 0.531 24.618 0 25 C-0.454 24.216 -0.907 23.433 -1.375 22.625 C-3 20 -3 20 -5 18 C-5.195 15.617 -5.195 15.617 -5.125 12.875 C-5.107 11.965 -5.089 11.055 -5.07 10.117 C-5.047 9.419 -5.024 8.72 -5 8 C-4.01 7.67 -3.02 7.34 -2 7 C-0.812 3.438 -0.812 3.438 0 0 Z " fill="#42A034" transform="translate(230,326)"/>
<path d="M0 0 C0.33 0.99 0.66 1.98 1 3 C0.67 3.495 0.67 3.495 -1 6 C0.65 6 2.3 6 4 6 C3.505 6.66 3.01 7.32 2.5 8 C0.517 11.966 0.776 14.603 1 19 C-0.32 18.67 -1.64 18.34 -3 18 C-3 20.31 -3 22.62 -3 25 C-7.124 19.621 -7.769 15.768 -7 9 C-5.126 5.447 -2.981 2.683 0 0 Z " fill="#60A458" transform="translate(367,325)"/>
<path d="M0 0 C0.66 0.33 1.32 0.66 2 1 C1.67 2.98 1.34 4.96 1 7 C1.66 7 2.32 7 3 7 C3.144 6.381 3.289 5.762 3.438 5.125 C4 3 4 3 5 1 C7.714 0.688 10.339 0.487 13.062 0.375 C13.821 0.336 14.58 0.298 15.361 0.258 C17.24 0.163 19.12 0.081 21 0 C20.34 0.66 19.68 1.32 19 2 C17.145 1.916 15.291 1.808 13.438 1.688 C10.121 1.856 7.914 2.043 5.557 4.511 C2.537 8.734 0.229 13.322 -2 18 C-2.99 16.68 -3.98 15.36 -5 14 C-5.66 15.65 -6.32 17.3 -7 19 C-7.66 19 -8.32 19 -9 19 C-9 19.66 -9 20.32 -9 21 C-9.66 20.67 -10.32 20.34 -11 20 C-9.02 16.04 -7.04 12.08 -5 8 C-4.34 8 -3.68 8 -3 8 C-2.691 7.051 -2.381 6.102 -2.062 5.125 C-1 2 -1 2 0 0 Z " fill="#68A761" transform="translate(193,153)"/>
<path d="M0 0 C0.66 0 1.32 0 2 0 C2.33 0.66 2.66 1.32 3 2 C3.66 2 4.32 2 5 2 C5.696 4.456 6.382 6.914 7.062 9.375 C7.262 10.074 7.461 10.772 7.666 11.492 C9.113 16.773 9.113 16.773 8 19 C7.67 18.01 7.34 17.02 7 16 C6.34 16.33 5.68 16.66 5 17 C4.586 18.848 4.586 18.848 4.375 21.062 C4.313 21.712 4.313 21.712 4 25 C3.67 25 3.34 25 3 25 C2.876 23.824 2.752 22.649 2.625 21.438 C2.283 18.655 1.79 16.279 1 13.562 C-0.162 9.424 -0.88 5.305 -1 1 C-0.67 0.67 -0.34 0.34 0 0 Z " fill="#56A24B" transform="translate(327,205)"/>
<path d="M0 0 C1 2 1 2 0.188 4.562 C-1 7 -1 7 -3 8 C-3.108 9.603 -3.186 11.207 -3.25 12.812 C-3.296 13.706 -3.343 14.599 -3.391 15.52 C-3 18 -3 18 -1.047 19.762 C-0.371 20.17 0.304 20.579 1 21 C1.33 21.33 1.66 21.66 2 22 C2.66 22 3.32 22 4 22 C4.33 21.01 4.66 20.02 5 19 C5 19.66 5 20.32 5 21 C6.415 21.197 7.832 21.382 9.25 21.562 C10.039 21.667 10.828 21.771 11.641 21.879 C14.005 22 15.751 21.696 18 21 C18.33 21.66 18.66 22.32 19 23 C15.763 24.619 12.207 24.342 8.629 24.523 C5.718 25.051 4.801 25.717 3 28 C-1.047 25.922 -3.14 24.184 -5 20 C-6.19 14.326 -6.181 10.505 -4 5 C-1.875 2.062 -1.875 2.062 0 0 Z " fill="#64A85D" transform="translate(229,326)"/>
<path d="M0 0 C0.33 0.33 0.66 0.66 1 1 C3.328 1.368 5.662 1.702 8 2 C7.67 3.65 7.34 5.3 7 7 C2.71 6.34 -1.58 5.68 -6 5 C-6 5.99 -6 6.98 -6 8 C-6.99 8 -7.98 8 -9 8 C-9.66 9.32 -10.32 10.64 -11 12 C-11.66 11.67 -12.32 11.34 -13 11 C-12.67 9.35 -12.34 7.7 -12 6 C-11.01 6 -10.02 6 -9 6 C-9 5.34 -9 4.68 -9 4 C-8.34 4 -7.68 4 -7 4 C-7 3.01 -7 2.02 -7 1 C-4.516 -0.242 -2.748 -0.141 0 0 Z " fill="#499C3E" transform="translate(308,323)"/>
<path d="M0 0 C0 0.99 0 1.98 0 3 C-0.66 3 -1.32 3 -2 3 C-1.938 3.722 -1.876 4.444 -1.812 5.188 C-2.037 8.562 -3.194 10.183 -5 13 C-5.688 15.312 -5.688 15.312 -6 17 C-6.66 16.34 -7.32 15.68 -8 15 C-10.193 14.543 -12.406 14.18 -14.625 13.875 C-15.814 13.707 -17.002 13.54 -18.227 13.367 C-19.142 13.246 -20.057 13.125 -21 13 C-21 12.67 -21 12.34 -21 12 C-16.38 12 -11.76 12 -7 12 C-7 11.34 -7 10.68 -7 10 C-10.3 10 -13.6 10 -17 10 C-17 9.34 -17 8.68 -17 8 C-17.99 7.835 -17.99 7.835 -23 7 C-19.386 5.749 -16.713 6.332 -13 7 C-11 7.037 -8.999 7.048 -7 7 C-6.67 6.01 -6.34 5.02 -6 4 C-3.999 1.635 -3.032 1.011 0 0 Z " fill="#63A95C" transform="translate(272,277)"/>
<path d="M0 0 C1.525 3.051 0.956 6.12 0.75 9.438 C0.723 10.119 0.696 10.8 0.668 11.502 C0.489 14.451 0.331 16.541 -1.422 18.973 C-3 20 -3 20 -5 20 C-5.081 17.229 -5.14 14.46 -5.188 11.688 C-5.2 11.295 -5.2 11.295 -5.264 9.307 C-5.273 8.549 -5.283 7.792 -5.293 7.012 C-5.309 6.315 -5.324 5.619 -5.341 4.901 C-4.785 1.802 -3.197 0 0 0 Z " fill="#439D37" transform="translate(185,335)"/>
<path d="M0 0 C3.96 1.98 7.92 3.96 12 6 C11.34 7.65 10.68 9.3 10 11 C9.586 13.238 9.586 13.238 9.375 15.312 C9.251 16.529 9.127 17.746 9 19 C7.571 16.646 6.913 15.52 7.375 12.75 C7.478 12.461 7.478 12.461 8 11 C7.154 10.773 6.309 10.546 5.438 10.312 C1.326 8.743 -1.504 6.657 -5 4 C-4.68 3.948 -4.68 3.948 -3.062 3.688 C-2.382 3.461 -1.701 3.234 -1 3 C-0.67 2.01 -0.34 1.02 0 0 Z " fill="#66A55D" transform="translate(311,144)"/>
<path d="M0 0 C0.66 0.33 1.32 0.66 2 1 C2 1.66 2 2.32 2 3 C3.32 3.33 4.64 3.66 6 4 C6 4.66 6 5.32 6 6 C4.35 6.66 2.7 7.32 1 8 C-0.061 15.689 -0.099 23.245 0 31 C-0.66 31 -1.32 31 -2 31 C-2.196 28.292 -2.382 25.584 -2.562 22.875 C-2.619 22.114 -2.675 21.354 -2.732 20.57 C-3.015 16.2 -2.931 12.319 -2 8 C-3.32 7.67 -4.64 7.34 -6 7 C-4.607 3.633 -3.021 2.014 0 0 Z " fill="#76B470" transform="translate(162,324)"/>
<path d="M0 0 C3.442 2.66 3.995 5.903 5 10 C4.34 9.67 3.68 9.34 3 9 C3 8.34 3 7.68 3 7 C1.047 7.957 1.047 7.957 -1 10 C-1.663 12.879 -1.697 15.741 -1.75 18.688 C-1.78 19.485 -1.809 20.282 -1.84 21.104 C-1.91 23.068 -1.957 25.034 -2 27 C-0.68 26.67 0.64 26.34 2 26 C2.33 22.7 2.66 19.4 3 16 C5 18 5 18 5.012 20.129 C4.905 20.932 4.798 21.735 4.688 22.562 C4.588 23.368 4.489 24.174 4.387 25.004 C4 27 4 27 3 28 C1 28.041 -1 28.043 -3 28 C-3.025 27.374 -3.05 26.749 -3.076 26.104 C-3.192 23.277 -3.315 20.451 -3.438 17.625 C-3.477 16.64 -3.516 15.655 -3.557 14.641 C-3.599 13.7 -3.64 12.759 -3.684 11.789 C-3.72 10.92 -3.757 10.05 -3.795 9.155 C-4 7 -4 7 -5 5 C-3.625 3.5 -3.625 3.5 -2 2 C-1.34 2 -0.68 2 0 2 C0 1.34 0 0.68 0 0 Z " fill="#589C52" transform="translate(182,328)"/>
<path d="M0 0 C6.614 1.643 10.158 3.295 14 9 C15.812 12.062 16.229 14.202 16.125 17.75 C16.107 18.549 16.089 19.348 16.07 20.172 C16.047 20.775 16.024 21.378 16 22 C15.67 22 15.34 22 15 22 C15 19.36 15 16.72 15 14 C14.34 14 13.68 14 13 14 C10 9.615 10 9.615 10 7 C9.67 7.165 9.67 7.165 8 8 C7.375 10.062 7.375 10.062 7 12 C6.34 11.34 5.68 10.68 5 10 C0.981 7.321 -1.253 7.678 -6 8 C-6 7.01 -6 6.02 -6 5 C-5.34 5 -4.68 5 -4 5 C-3.67 4.34 -3.34 3.68 -3 3 C-3 3.99 -3 4.98 -3 6 C-2.526 5.99 -2.526 5.99 -0.125 5.938 C3 6 3 6 5 7 C5.33 5.68 5.66 4.36 6 3 C5.196 2.876 4.391 2.752 3.562 2.625 C2.717 2.419 1.871 2.212 1 2 C0.67 1.34 0.34 0.68 0 0 Z " fill="#6EAC5F" transform="translate(128,322)"/>
<path d="M0 0 C2.875 1.312 2.875 1.312 5 3 C5.33 3.99 5.66 4.98 6 6 C5.34 6 4.68 6 4 6 C4 5.34 4 4.68 4 4 C1.69 4 -0.62 4 -3 4 C-3 4.66 -3 5.32 -3 6 C-3.485 6.196 -3.485 6.196 -5.938 7.188 C-9 9 -9 9 -9.875 11.688 C-9.916 12.451 -9.957 13.214 -10 14 C-10.99 13.34 -11.98 12.68 -13 12 C-12.637 4.75 -12.637 4.75 -9.875 1.5 C-6.248 -0.392 -4.046 -0.506 0 0 Z " fill="#46A337" transform="translate(273,112)"/>
<path d="M0 0 C0.66 0 1.32 0 2 0 C2.021 1.217 2.041 2.434 2.062 3.688 C2.371 6.424 2.579 7.61 4.625 9.504 C6.562 10.75 6.562 10.75 8.504 11.797 C8.998 12.194 9.491 12.591 10 13 C10 14.32 10 15.64 10 17 C3.723 18.354 3.723 18.354 0.062 16.562 C-0.618 16.047 -1.299 15.531 -2 15 C-1.499 14.459 -0.997 13.917 -0.48 13.359 C1.42 10.331 1.146 8.752 0.688 5.25 C0.568 4.265 0.448 3.28 0.324 2.266 C0.271 1.892 0.271 1.892 0 0 Z " fill="#6BAE5F" transform="translate(205,338)"/>
<path d="M0 0 C0.99 0.99 1.98 1.98 3 3 C2.34 4.32 1.68 5.64 1 7 C0.67 6.01 0.34 5.02 0 4 C-0.66 4 -1.32 4 -2 4 C-2.193 4.543 -2.387 5.085 -2.586 5.645 C-2.846 6.36 -3.107 7.075 -3.375 7.812 C-3.63 8.52 -3.885 9.228 -4.148 9.957 C-5 12 -5 12 -7 15 C-6.01 15.33 -5.02 15.66 -4 16 C-4 22.6 -4 29.2 -4 36 C-4.33 36 -4.66 36 -5 36 C-5.33 30.06 -5.66 24.12 -6 18 C-6.99 17.67 -7.98 17.34 -9 17 C-9.33 15.35 -9.66 13.7 -10 12 C-8.68 11.67 -7.36 11.34 -6 11 C-6 8.03 -6 5.06 -6 2 C-4.02 1.34 -2.04 0.68 0 0 Z " fill="#93CA8C" transform="translate(204,312)"/>
<path d="M0 0 C0.206 0.578 0.413 1.155 0.625 1.75 C2.492 4.805 5.014 6.094 8 8 C8.33 8.66 8.66 9.32 9 10 C6.831 9.494 5 9 3 8 C2.67 8.99 2.34 9.98 2 11 C3.65 11.33 5.3 11.66 7 12 C7 12.66 7 13.32 7 14 C7.99 14.165 7.99 14.165 13 15 C13 15.99 13 16.98 13 18 C9.21 16.573 5.729 14.838 2.188 12.875 C1.7 12.606 1.7 12.606 -0.77 11.242 C-1.506 10.832 -2.242 10.422 -3 10 C-3.99 10.66 -4.98 11.32 -6 12 C-6.99 11.67 -7.98 11.34 -9 11 C-7 9 -7 9 -4.938 8 C-3 7 -3 7 -2 5 C-1.34 5 -0.68 5 0 5 C0 3.35 0 1.7 0 0 Z " fill="#67A95B" transform="translate(281,122)"/>
<path d="M0 0 C0.33 0.99 0.66 1.98 1 3 C-1.64 3.33 -4.28 3.66 -7 4 C-7 4.66 -7 5.32 -7 6 C-8.625 6.027 -10.25 6.046 -11.875 6.062 C-12.327 6.068 -12.327 6.068 -14.617 6.098 C-17 6 -17 6 -19 5 C-19 4.01 -19 3.02 -19 2 C-16.959 1.661 -14.917 1.329 -12.875 1 C-11.738 0.814 -10.601 0.629 -9.43 0.438 C-6.239 0.03 -3.212 -0.078 0 0 Z " fill="#54A149" transform="translate(252,126)"/>
<path d="M0 0 C0.66 0 1.32 0 2 0 C4.296 2.561 5 3.48 5 7 C5.66 7 6.32 7 7 7 C7 9.97 7 12.94 7 16 C5.68 16.33 4.36 16.66 3 17 C3 16.01 3 15.02 3 14 C2.34 14 1.68 14 1 14 C1 10.37 1 6.74 1 3 C0.34 3 -0.32 3 -1 3 C-0.67 2.01 -0.34 1.02 0 0 Z " fill="#429B34" transform="translate(136,329)"/>
<path d="M0 0 C0.99 0.33 1.98 0.66 3 1 C-2.328 5.44 -5.795 7.466 -12.742 7.328 C-16.205 6.825 -18.376 5.23 -21 3 C-21.33 2.34 -21.66 1.68 -22 1 C-19.69 1 -17.38 1 -15 1 C-14.67 1.66 -14.34 2.32 -14 3 C-9.623 4.194 -7.027 4.068 -3 2 C-2.01 1.34 -1.02 0.68 0 0 Z " fill="#5FA458" transform="translate(213,281)"/>
<path d="M0 0 C1.32 0.33 1.32 0.33 8 2 C8 2.66 8 3.32 8 4 C8.66 3.67 9.32 3.34 10 3 C15.538 2.769 15.538 2.769 18 4 C18 4.66 18 5.32 18 6 C15.229 6.054 12.459 6.094 9.688 6.125 C8.902 6.142 8.116 6.159 7.307 6.176 C6.549 6.182 5.792 6.189 5.012 6.195 C4.663 6.201 4.663 6.201 2.901 6.227 C1 6 1 6 -2 4 C-1.34 2.68 -0.68 1.36 0 0 Z " fill="#469F3B" transform="translate(247,283)"/>
<path d="M0 0 C4.75 1.875 4.75 1.875 7 3 C7.043 4.666 7.041 6.334 7 8 C6.67 8.33 6.34 8.66 6 9 C-1.218 8.645 -1.218 8.645 -4.5 5.938 C-4.995 5.298 -5.49 4.659 -6 4 C-5.381 3.897 -4.762 3.794 -4.125 3.688 C-2 3 -2 3 0 0 Z " fill="#529B49" transform="translate(346,347)"/>
<path d="M0 0 C3.934 4.883 3.934 4.883 5.312 7.312 C7 9 7 9 10.312 9.062 C11.529 9.042 12.746 9.021 14 9 C17.438 10.5 17.438 10.5 20 12 C15.937 14.708 13.321 14.074 8.602 13.539 C6 13 6 13 3.438 11.25 C0.915 7.302 0 4.735 0 0 Z " fill="#62A459" transform="translate(192,247)"/>
<path d="M0 0 C2.812 2.812 2.699 5.84 3.125 9.625 C3.168 9.978 3.168 9.978 3.387 11.766 C3.599 13.51 3.8 15.255 4 17 C4.66 16.67 5.32 16.34 6 16 C6.414 12.84 6.414 12.84 6.625 8.938 C6.662 8.292 6.662 8.292 6.852 5.027 C6.901 4.028 6.95 3.029 7 2 C7.33 2 7.66 2 8 2 C8.027 4.813 8.047 7.625 8.062 10.438 C8.071 11.24 8.079 12.042 8.088 12.869 C8.097 14.913 8.052 16.957 8 19 C7 20 7 20 3.938 20.062 C2.968 20.042 1.999 20.021 1 20 C0.098 17.293 -0.119 15.762 -0.098 12.988 C-0.094 12.231 -0.091 11.474 -0.088 10.693 C-0.08 9.908 -0.071 9.122 -0.062 8.312 C-0.058 7.515 -0.053 6.718 -0.049 5.896 C-0.037 3.931 -0.019 1.965 0 0 Z " fill="#8CBF87" transform="translate(267,336)"/>
<path d="M0 0 C0.138 0.277 0.138 0.277 0.836 1.68 C1.645 3.293 2.464 4.902 3.289 6.508 C3.509 6.94 3.509 6.94 4.625 9.125 C5.071 9.994 5.517 10.863 5.977 11.758 C7 14 7 14 7 16 C6.34 16.33 5.68 16.66 5 17 C4.375 20.062 4.375 20.062 4 23 C1.821 19.732 0.502 16.619 -1 13 C-0.01 13 0.98 13 2 13 C1.502 9.265 1.125 7.188 -1 4 C-0.625 1.812 -0.625 1.812 0 0 Z " fill="#66A55B" transform="translate(181,223)"/>
<path d="M0 0 C0.66 0 1.32 0 2 0 C2.33 3.63 2.66 7.26 3 11 C3.66 7.37 4.32 3.74 5 0 C5.33 0 5.66 0 6 0 C6.111 5.458 5.917 10.615 5 16 C4.67 15.01 4.34 14.02 4 13 C2.35 14.32 0.7 15.64 -1 17 C-1.66 16.67 -2.32 16.34 -3 16 C-2.835 15.752 -2.835 15.752 -2 14.5 C-0.79 11.475 -0.906 9.124 -0.996 5.906 C-1 3.803 -0.665 1.995 0 0 Z " fill="#68AC62" transform="translate(325,172)"/>
<path d="M0 0 C0.33 0 0.66 0 1 0 C1 3.63 1 7.26 1 11 C1.66 11 2.32 11 3 11 C3 11.99 3 12.98 3 14 C3.66 14 4.32 14 5 14 C5.33 13.01 5.66 12.02 6 11 C6.33 11.99 6.66 12.98 7 14 C5.68 15.32 4.36 16.64 3 18 C1.02 17.34 -0.96 16.68 -3 16 C-3.33 16.66 -3.66 17.32 -4 18 C-4.99 17.34 -5.98 16.68 -7 16 C-6.598 15.773 -6.598 15.773 -4.562 14.625 C-2 13 -2 13 -1 11 C-0.955 9.313 -0.961 7.625 -1 5.938 C-1.038 4.292 -1.046 2.645 -1 1 C-0.67 0.67 -0.34 0.34 0 0 Z " fill="#4C9C43" transform="translate(136,332)"/>
<path d="M0 0 C3.062 0.438 3.062 0.438 5.5 2.125 C7.062 4.438 7.062 4.438 6.812 7.188 C6.565 7.93 6.317 8.673 6.062 9.438 C-2.509 6.438 -2.509 6.438 -5.938 3.438 C-4.065 0.941 -3.148 0.469 0 0 Z " fill="#4A9C3D" transform="translate(382.9375,323.5625)"/>
<path d="M0 0 C0.66 0.66 1.32 1.32 2 2 C-0.051 2.228 -2.102 2.456 -4.152 2.684 C-6 3 -6 3 -7 4 C-6.216 3.938 -5.433 3.876 -4.625 3.812 C-4.192 3.843 -4.192 3.843 -2 4 C-1.67 4.495 -1.67 4.495 0 7 C-1.093 7.124 -2.186 7.248 -3.312 7.375 C-7 8 -7 8 -10 10 C-10 8.68 -10 7.36 -10 6 C-11.5 4.25 -11.5 4.25 -13 3 C-8.474 0.35 -5.246 -0.504 0 0 Z " fill="#6CA966" transform="translate(244,322)"/>
<path d="M0 0 C0.66 0 1.32 0 2 0 C4.329 4.659 3.385 12.151 2 17 C-0.062 18.875 -0.062 18.875 -2 20 C-1.424 17.614 -0.778 15.333 0 13 C-0.33 12.443 -0.66 11.886 -1 11.312 C-2.566 7.692 -1.694 4.848 -1 1 C-0.67 0.67 -0.34 0.34 0 0 Z " fill="#47A13A" transform="translate(332,221)"/>
<path d="M0 0 C4.057 -0.025 8.114 -0.043 12.17 -0.055 C13.55 -0.06 14.929 -0.067 16.308 -0.075 C18.294 -0.088 20.28 -0.093 22.266 -0.098 C23.46 -0.103 24.654 -0.108 25.884 -0.114 C28.467 -0.019 30.55 0.234 33 1 C33 1.99 33 2.98 33 4 C33.66 4 34.32 4 35 4 C35 4.99 35 5.98 35 7 C32.159 6.594 31.16 6.181 29.219 3.984 C26.401 1.464 24.98 1.497 21.246 1.504 C20.145 1.503 19.043 1.503 17.908 1.502 C16.763 1.522 15.618 1.542 14.438 1.562 C13.288 1.555 12.139 1.548 10.955 1.541 C2.478 1.606 2.478 1.606 0.149 3.527 C-0.041 3.77 -0.041 3.77 -1 5 C-0.67 3.35 -0.34 1.7 0 0 Z " fill="#5FA157" transform="translate(288,199)"/>
<path d="M0 0 C2.972 1.125 5.334 2.223 8 4 C7.67 5.65 7.34 7.3 7 9 C4.36 8.34 1.72 7.68 -1 7 C-1.33 5.35 -1.66 3.7 -2 2 C-1.34 2 -0.68 2 0 2 C0 1.34 0 0.68 0 0 Z " fill="#569E4A" transform="translate(303,139)"/>
<path d="M0 0 C0.66 0.66 1.32 1.32 2 2 C1.625 4.125 1.625 4.125 1 6 C2.32 5.67 3.64 5.34 5 5 C5 5.99 5 6.98 5 8 C4.34 8 3.68 8 3 8 C3 10.31 3 12.62 3 15 C3.402 15.144 3.402 15.144 5.438 15.875 C8 17 8 17 9 19 C8.01 19.33 7.02 19.66 6 20 C2.525 16.159 0.041 13.205 -1 8 C-0.861 5.263 -0.467 2.711 0 0 Z " fill="#64AF5B" transform="translate(292,333)"/>
<path d="M0 0 C0.99 0.33 1.98 0.66 3 1 C3 1.99 3 2.98 3 4 C3.66 4.33 4.32 4.66 5 5 C4.67 6.65 4.34 8.3 4 10 C4.99 10.33 5.98 10.66 7 11 C5.071 14.408 3.172 17.741 1 21 C0.34 21 -0.32 21 -1 21 C-0.692 19.52 -0.378 18.041 -0.062 16.562 C0.025 16.151 0.025 16.151 0.465 14.066 C1 12 1 12 2 11 C1.622 7.095 1.239 3.718 0 0 Z " fill="#529F49" transform="translate(188,252)"/>
<path d="M0 0 C0.99 0 1.98 0 3 0 C3 0.66 3 1.32 3 2 C4.815 1.835 4.815 1.835 14 1 C9.447 4.415 8.045 5.151 2.562 5.188 C1.594 5.202 0.626 5.216 -0.371 5.23 C-3 5 -3 5 -6 3 C-5.196 2.691 -4.391 2.381 -3.562 2.062 C-1 1 -1 1 0 0 Z " fill="#65A75C" transform="translate(238,351)"/>
<path d="M0 0 C0.825 0.33 0.825 0.33 5 2 C3.75 5.653 3.329 6.781 0 9 C-1.188 11.125 -1.188 11.125 -2 13 C-2.99 12.01 -3.98 11.02 -5 10 C-4.67 9.01 -4.34 8.02 -4 7 C-3.34 7 -2.68 7 -2 7 C-1.34 4.69 -0.68 2.38 0 0 Z " fill="#409D35" transform="translate(230,326)"/>
<path d="M0 0 C0.557 0.227 1.114 0.454 1.688 0.688 C1.358 2.998 1.027 5.308 0.688 7.688 C-2.152 7.688 -4.55 7.285 -7.312 6.688 C-7.312 5.368 -7.312 4.048 -7.312 2.688 C-4.752 0.625 -3.325 -0.449 0 0 Z " fill="#3FA033" transform="translate(341.3125,321.3125)"/>
<path d="M0 0 C0 0.66 0 1.32 0 2 C-0.66 2 -1.32 2 -2 2 C-2 3.65 -2 5.3 -2 7 C-2.784 7.124 -3.567 7.248 -4.375 7.375 C-7 8 -7 8 -9 10 C-9.99 9.67 -10.98 9.34 -12 9 C-12 10.32 -12 11.64 -12 13 C-12.66 13 -13.32 13 -14 13 C-13.781 9.173 -13.085 8.081 -10.25 5.375 C-3.196 0 -3.196 0 0 0 Z " fill="#46993C" transform="translate(322,255)"/>
<path d="M0 0 C7.59 0 15.18 0 23 0 C18.498 3.377 18.498 3.377 14.961 3.328 C14.216 3.323 13.471 3.318 12.703 3.312 C12.319 3.302 12.319 3.302 10.375 3.25 C9.987 3.247 9.987 3.247 8.023 3.234 C2.31 3.155 2.31 3.155 0 2 C0 1.34 0 0.68 0 0 Z " fill="#67B461" transform="translate(294,194)"/>
<path d="M0 0 C0.99 0 1.98 0 3 0 C3.99 2.64 4.98 5.28 6 8 C5.01 8.99 4.02 9.98 3 11 C1.68 10.34 0.36 9.68 -1 9 C-1.098 2.848 -1.098 2.848 -1 1 C-0.67 0.67 -0.34 0.34 0 0 Z " fill="#4F9B43" transform="translate(186,239)"/>
<path d="M0 0 C0.485 0.01 0.485 0.01 2.938 0.062 C3.267 1.053 3.598 2.043 3.938 3.062 C3.277 3.062 2.618 3.062 1.938 3.062 C1.938 5.043 1.938 7.022 1.938 9.062 C-0.043 9.062 -2.022 9.062 -4.062 9.062 C-4.16 2.91 -4.16 2.91 -4.062 1.062 C-3.062 0.062 -3.062 0.062 0 0 Z " fill="#40AC35" transform="translate(341.0625,312.9375)"/>
<path d="M0 0 C2.3 3.45 2.431 4.946 2 9 C-1.228 11.152 -2.284 11.201 -6 11 C-5.505 10.567 -5.01 10.134 -4.5 9.688 C-3 8 -3 8 -3 5 C-4.98 5 -6.96 5 -9 5 C-9 4.67 -9 4.34 -9 4 C-8.536 3.856 -8.536 3.856 -6.188 3.125 C-3 2 -3 2 0 0 Z " fill="#52A24C" transform="translate(384,345)"/>
<path d="M0 0 C-0.072 0.278 -0.072 0.278 -0.438 1.688 C-0.623 2.451 -0.809 3.214 -1 4 C-1.206 4.846 -1.413 5.691 -1.625 6.562 C-2 9 -2 9 -1 12 C-2.65 12 -4.3 12 -6 12 C-7.559 8.881 -7.361 6.427 -7 3 C-4.603 1.044 -3.124 0 0 0 Z " fill="#41A034" transform="translate(392,342)"/>
<path d="M0 0 C2 2 2 2 2.375 4.625 C1.888 9.009 0.158 12.205 -2 16 C-2.062 15.701 -2.062 15.701 -2.375 14.188 C-3 12 -3 12 -5 9 C-4.67 8.34 -4.34 7.68 -4 7 C-3.34 7 -2.68 7 -2 7 C-1.856 6.216 -1.711 5.433 -1.562 4.625 C-1 2 -1 2 0 0 Z " fill="#56A84D" transform="translate(188,165)"/>
<path d="M0 0 C6.118 -0.499 9.025 0.751 14 4 C13.34 4.33 13.34 4.33 10 6 C9.34 5.34 8.68 4.68 8 4 C3.448 3.656 0.114 4.005 -4 6 C-3.67 5.01 -3.34 4.02 -3 3 C-2.34 3 -1.68 3 -1 3 C-0.67 2.01 -0.34 1.02 0 0 Z " fill="#5C9F53" transform="translate(274,184)"/>
<path d="M0 0 C0.66 0 1.32 0 2 0 C1.67 1.65 1.34 3.3 1 5 C0.34 5 -0.32 5 -1 5 C-1.33 5.99 -1.66 6.98 -2 8 C-3.65 8 -5.3 8 -7 8 C-7 7.34 -7 6.68 -7 6 C-7.743 6.516 -8.485 7.031 -9.25 7.562 C-12 9 -12 9 -14.312 8.688 C-14.869 8.461 -15.426 8.234 -16 8 C-15.34 8 -14.68 8 -14 8 C-13.67 7.01 -13.34 6.02 -13 5 C-12.229 4.974 -11.458 4.948 -10.664 4.922 C-9.661 4.865 -8.658 4.808 -7.625 4.75 C-6.627 4.704 -5.63 4.657 -4.602 4.609 C-2 4 -2 4 -0.648 1.953 C-0.434 1.309 -0.22 0.664 0 0 Z " fill="#459E3A" transform="translate(248,345)"/>
<path d="M0 0 C2.094 3.402 2.179 6.053 2 10 C-0.169 9.494 -2 9 -4 8 C-4 8.66 -4 9.32 -4 10 C-4.66 10 -5.32 10 -6 10 C-6 7.69 -6 5.38 -6 3 C-5.175 3.165 -5.175 3.165 -1 4 C-0.67 2.68 -0.34 1.36 0 0 Z " fill="#63AB59" transform="translate(256,332)"/>
<path d="M0 0 C0.66 0 1.32 0 2 0 C5.077 5.415 5.077 5.415 4.688 8.375 C4.461 8.911 4.234 9.447 4 10 C3.67 9.01 3.34 8.02 3 7 C1.02 7.33 -0.96 7.66 -3 8 C-4.32 6.02 -5.64 4.04 -7 2 C-5.02 2.66 -3.04 3.32 -1 4 C-0.67 2.68 -0.34 1.36 0 0 Z " fill="#60A656" transform="translate(389,328)"/>
<path d="M0 0 C2.31 0.33 4.62 0.66 7 1 C7 1.99 7 2.98 7 4 C7.99 4.33 8.98 4.66 10 5 C5.823 6.591 2.468 7.213 -2 7 C-1.34 4.69 -0.68 2.38 0 0 Z " fill="#429C37" transform="translate(374,349)"/>
<path d="M0 0 C0.99 0 1.98 0 3 0 C5.429 8.429 5.429 8.429 4 13 C0.267 11.555 0.267 11.555 -0.812 9.312 C-1.072 6.109 -0.546 3.155 0 0 Z " fill="#42A236" transform="translate(319,332)"/>
<path d="M0 0 C0.33 0.66 0.66 1.32 1 2 C0.062 4.625 0.062 4.625 -1 7 C-1.66 7 -2.32 7 -3 7 C-3.33 10.3 -3.66 13.6 -4 17 C-3.34 17 -2.68 17 -2 17 C-1.67 17.99 -1.34 18.98 -1 20 C-1.66 20.66 -2.32 21.32 -3 22 C-5.718 17.47 -7.257 13.242 -6 8 C-4.276 5.072 -2.261 2.53 0 0 Z " fill="#70A968" transform="translate(161,191)"/>
<path d="M0 0 C0.99 0.165 0.99 0.165 6 1 C6 1.66 6 2.32 6 3 C6.99 3 7.98 3 9 3 C9 3.66 9 4.32 9 5 C10.65 5.33 12.3 5.66 14 6 C14 6.66 14 7.32 14 8 C11.066 8.349 8.856 8.515 6.266 6.957 C4.625 5.625 4.625 5.625 2 3 C2 2.34 2 1.68 2 1 C1.34 0.67 0.68 0.34 0 0 Z " fill="#46983D" transform="translate(258,127)"/>
<path d="M0 0 C0.516 0.371 1.031 0.743 1.562 1.125 C5.124 2.403 7.517 1.206 11 0 C11.66 0.66 12.32 1.32 13 2 C11.35 2.33 9.7 2.66 8 3 C9.98 3.66 11.96 4.32 14 5 C11.361 6.414 8.929 7.372 6 8 C6 6.68 6 5.36 6 4 C4.35 3.67 2.7 3.34 1 3 C0.67 2.01 0.34 1.02 0 0 Z " fill="#6CAC65" transform="translate(215,131)"/>
<path d="M0 0 C1.98 0 3.96 0 6 0 C6 0.66 6 1.32 6 2 C4.35 2.33 2.7 2.66 1 3 C1 3.99 1 4.98 1 6 C0.01 6 -0.98 6 -2 6 C-2.66 7.32 -3.32 8.64 -4 10 C-4.66 9.67 -5.32 9.34 -6 9 C-5.67 7.35 -5.34 5.7 -5 4 C-4.01 4 -3.02 4 -2 4 C-2 3.34 -2 2.68 -2 2 C-1.34 2 -0.68 2 0 2 C0 1.34 0 0.68 0 0 Z " fill="#3FA034" transform="translate(301,325)"/>
<path d="M0 0 C2.875 1.312 2.875 1.312 5 3 C5.33 3.99 5.66 4.98 6 6 C5.34 6 4.68 6 4 6 C4 5.34 4 4.68 4 4 C0.04 3.67 -3.92 3.34 -8 3 C-8 3.66 -8 4.32 -8 5 C-9.32 4.67 -10.64 4.34 -12 4 C-8.017 0.137 -5.519 -0.69 0 0 Z " fill="#71A867" transform="translate(273,112)"/>
<path d="M0 0 C4.75 0.75 4.75 0.75 7 3 C7.125 6.625 7.125 6.625 7 10 C5.109 9.785 5.109 9.785 3 9 C1.953 6.934 1.953 6.934 1.25 4.438 C1.008 3.611 0.765 2.785 0.516 1.934 C0.345 1.296 0.175 0.657 0 0 Z " fill="#5EA155" transform="translate(176,226)"/>
<path d="M0 0 C1.648 2.967 2.443 5.656 3 9 C2.34 8.67 1.68 8.34 1 8 C1 7.34 1 6.68 1 6 C0.67 6.165 0.67 6.165 -1 7 C-1.414 8.848 -1.414 8.848 -1.625 11.062 C-1.749 12.362 -1.873 13.661 -2 15 C-2.33 15 -2.66 15 -3 15 C-3.228 12.982 -3.456 10.964 -3.684 8.945 C-4 7 -4 7 -5 5 C-4.25 2.938 -4.25 2.938 -3 1 C-2.01 0.67 -1.02 0.34 0 0 Z " fill="#6FAD65" transform="translate(333,215)"/>
<path d="M0 0 C0.99 0.33 1.98 0.66 3 1 C3 3.64 3 6.28 3 9 C1.35 9.66 -0.3 10.32 -2 11 C-2.955 8.83 -3.144 7.437 -2.398 5.176 C-1.641 3.432 -0.824 1.714 0 0 Z " fill="#449D36" transform="translate(331,192)"/>
<path d="M0 0 C0.33 0.474 0.66 0.949 1 1.438 C-1.64 1.107 -4.28 0.778 -7 0.438 C-7 1.097 -7 1.757 -7 2.438 C-8.32 2.438 -9.64 2.438 -11 2.438 C-11 1.778 -11 1.118 -11 0.438 C-12.98 0.768 -14.96 1.097 -17 1.438 C-12.728 -3.475 -5.203 -4.065 0 0 Z " fill="#6BAB61" transform="translate(214,129.5625)"/>
<path d="M0 0 C1.351 0.63 2.683 1.303 4 2 C5.324 2.368 6.656 2.712 8 3 C7.67 4.32 7.34 5.64 7 7 C4.36 6.67 1.72 6.34 -1 6 C-1.33 4.35 -1.66 2.7 -2 1 C-1.34 0.67 -0.68 0.34 0 0 Z " fill="#469E39" transform="translate(126,322)"/>
<path d="M0 0 C1.32 0.33 2.64 0.66 4 1 C4 1.66 4 2.32 4 3 C3.34 3 2.68 3 2 3 C1.67 4.32 1.34 5.64 1 7 C-1.31 7 -3.62 7 -6 7 C-6 6.01 -6 5.02 -6 4 C-4.68 4 -3.36 4 -2 4 C-1.34 2.68 -0.68 1.36 0 0 Z " fill="#409D33" transform="translate(316,347)"/>
<path d="M0 0 C2.339 0.287 4.674 0.619 7 1 C6.68 1.258 6.68 1.258 5.062 2.562 C2.442 5.659 2.306 8.021 2 12 C1.34 12 0.68 12 0 12 C-0.194 10.188 -0.38 8.376 -0.562 6.562 C-0.667 5.553 -0.771 4.544 -0.879 3.504 C-0.919 2.678 -0.959 1.851 -1 1 C-0.67 0.67 -0.34 0.34 0 0 Z " fill="#65A85B" transform="translate(284,282)"/>
<path d="M0 0 C0.99 0.33 1.98 0.66 3 1 C3 3.31 3 5.62 3 8 C2.01 8.33 1.02 8.66 0 9 C-2.688 7.562 -2.688 7.562 -5 6 C-4.34 5.67 -3.68 5.34 -3 5 C-2.67 4.34 -2.34 3.68 -2 3 C-1.34 2.67 -0.68 2.34 0 2 C0 1.34 0 0.68 0 0 Z " fill="#60A455" transform="translate(371,347)"/>
<path d="M0 0 C2.495 2.495 2.359 3.673 2.625 7.125 C2.7 8.035 2.775 8.945 2.852 9.883 C2.876 10.232 2.876 10.232 3 12 C5.31 12.33 7.62 12.66 10 13 C9.34 13.66 8.68 14.32 8 15 C5.227 14.655 2.693 13.782 0 13 C0 8.71 0 4.42 0 0 Z " fill="#5EA358" transform="translate(216,264)"/>
<path d="M0 0 C0.33 0 0.66 0 1 0 C1.026 1.06 1.052 2.119 1.078 3.211 C1.134 4.599 1.192 5.987 1.25 7.375 C1.264 8.074 1.278 8.772 1.293 9.492 C1.391 11.523 1.391 11.523 2 15 C4.047 16.477 4.047 16.477 6 17 C6 17.33 6 17.66 6 18 C4.334 18.043 2.666 18.041 1 18 C0 17 0 17 -0.098 13.184 C-0.091 11.602 -0.079 10.019 -0.062 8.438 C-0.058 7.631 -0.053 6.825 -0.049 5.994 C-0.037 3.996 -0.019 1.998 0 0 Z " fill="#91BC89" transform="translate(154,338)"/>
<path d="M0 0 C0.33 0.99 0.66 1.98 1 3 C3.31 3 5.62 3 8 3 C8 4.98 8 6.96 8 9 C7.526 9.041 7.526 9.041 5.125 9.25 C2 10 2 10 0.625 12.062 C0.419 12.702 0.213 13.341 0 14 C-0.33 12.02 -0.66 10.04 -1 8 C0.98 7.67 2.96 7.34 5 7 C5.33 6.01 5.66 5.02 6 4 C4.02 4 2.04 4 0 4 C0 2.68 0 1.36 0 0 Z " fill="#72B46D" transform="translate(206,320)"/>
<path d="M0 0 C1.65 0.33 3.3 0.66 5 1 C4.216 1.598 3.433 2.196 2.625 2.812 C-1.861 6.551 -1.861 6.551 -2.195 10.043 C-2.172 10.751 -2.149 11.458 -2.125 12.188 C-2.084 13.446 -2.043 14.704 -2 16 C-2.66 15.67 -3.32 15.34 -4 15 C-4.027 13.375 -4.046 11.75 -4.062 10.125 C-4.074 9.22 -4.086 8.315 -4.098 7.383 C-4 5 -4 5 -3 3 C-2.01 3 -1.02 3 0 3 C0 2.01 0 1.02 0 0 Z " fill="#68AC61" transform="translate(302,328)"/>
<path d="M0 0 C1 2 1 2 0.188 4.562 C-1 7 -1 7 -3 8 C-3 11.63 -3 15.26 -3 19 C-3.66 19.33 -4.32 19.66 -5 20 C-5.994 14.334 -6.175 10.488 -4 5 C-1.875 2.062 -1.875 2.062 0 0 Z " fill="#6CA966" transform="translate(229,326)"/>
<path d="M0 0 C2.31 0.33 4.62 0.66 7 1 C7 1.66 7 2.32 7 3 C8.65 3 10.3 3 12 3 C12 3.66 12 4.32 12 5 C12.66 5.33 13.32 5.66 14 6 C8.143 6.732 4.496 4.48 0 1 C0 0.67 0 0.34 0 0 Z " fill="#68A55C" transform="translate(113,350)"/>
<path d="M0 0 C1.32 0.99 2.64 1.98 4 3 C2.35 3.66 0.7 4.32 -1 5 C-1 5.99 -1 6.98 -1 8 C-1.99 8 -2.98 8 -4 8 C-4 9.32 -4 10.64 -4 12 C-4.66 12 -5.32 12 -6 12 C-5.391 8.445 -4.582 5.253 -3 2 C-2.01 1.34 -1.02 0.68 0 0 Z " fill="#409D36" transform="translate(115,329)"/>
<path d="M0 0 C1.65 0 3.3 0 5 0 C4.649 1.052 4.299 2.104 3.938 3.188 C3.05 6.795 2.947 8.526 4 12 C3.01 12 2.02 12 1 12 C0.638 10.377 0.285 8.751 -0.062 7.125 C-0.26 6.22 -0.457 5.315 -0.66 4.383 C-1 2 -1 2 0 0 Z " fill="#62AE5C" transform="translate(114,332)"/>
<path d="M0 0 C0.99 0.33 1.98 0.66 3 1 C1.688 4.438 1.688 4.438 0 8 C-0.99 8.33 -1.98 8.66 -3 9 C-3.33 7.02 -3.66 5.04 -4 3 C-2.188 1.438 -2.188 1.438 0 0 Z " fill="#3F9F35" transform="translate(274,327)"/>
<path d="M0 0 C1.65 0.33 3.3 0.66 5 1 C5.33 1.99 5.66 2.98 6 4 C5.01 4.66 4.02 5.32 3 6 C2.67 6.99 2.34 7.98 2 9 C1.01 8.01 0.02 7.02 -1 6 C-0.67 5.34 -0.34 4.68 0 4 C0 2.68 0 1.36 0 0 Z " fill="#52A04A" transform="translate(246,324)"/>
<path d="M0 0 C0.33 0.99 0.66 1.98 1 3 C0.175 3.495 0.175 3.495 -4 6 C-4.66 5.01 -5.32 4.02 -6 3 C-8.125 2.312 -8.125 2.312 -10 2 C-6.275 -0.661 -4.421 -1.39 0 0 Z " fill="#5FA856" transform="translate(296,277)"/>
<path d="M0 0 C0 0.66 0 1.32 0 2 C0.66 2.33 1.32 2.66 2 3 C1.67 3.33 1.34 3.66 1 4 C-1.031 3.949 -1.031 3.949 -3.5 3.688 C-4.315 3.609 -5.129 3.53 -5.969 3.449 C-6.639 3.301 -7.309 3.153 -8 3 C-8.33 2.34 -8.66 1.68 -9 1 C-5.649 -1.11 -3.779 -1.05 0 0 Z " fill="#479C3B" transform="translate(231,132)"/>
<path d="M0 0 C0.825 0.33 0.825 0.33 5 2 C5 2.66 5 3.32 5 4 C4.34 4 3.68 4 3 4 C3 4.66 3 5.32 3 6 C1.35 6 -0.3 6 -2 6 C-2.33 6.66 -2.66 7.32 -3 8 C-3.66 7.34 -4.32 6.68 -5 6 C-3.68 5.67 -2.36 5.34 -1 5 C-0.67 3.35 -0.34 1.7 0 0 Z " fill="#409D36" transform="translate(368,325)"/>
<path d="M0 0 C0.66 0 1.32 0 2 0 C1.67 0.99 1.34 1.98 1 3 C0.34 3 -0.32 3 -1 3 C-0.979 3.361 -0.979 3.361 -0.875 5.188 C-1.009 8.207 -1.752 10.269 -3 13 C-5 11 -5 11 -5.438 8.75 C-4.788 4.666 -2.875 2.943 0 0 Z " fill="#7BB376" transform="translate(328,234)"/>
<path d="M0 0 C0.66 0.33 1.32 0.66 2 1 C0.827 9.193 0.827 9.193 -2.625 12.562 C-3.409 13.037 -4.192 13.511 -5 14 C-4.34 11.69 -3.68 9.38 -3 7 C-2.34 7 -1.68 7 -1 7 C-1.33 5.68 -1.66 4.36 -2 3 C-1.34 3 -0.68 3 0 3 C0 2.01 0 1.02 0 0 Z " fill="#6DAA5E" transform="translate(219,139)"/>
<path d="M0 0 C1.32 0.33 2.64 0.66 4 1 C4.33 2.65 4.66 4.3 5 6 C3.35 6.33 1.7 6.66 0 7 C0 4.69 0 2.38 0 0 Z " fill="#5CA057" transform="translate(210,349)"/>
<path d="M0 0 C1.98 0.66 3.96 1.32 6 2 C6 2.66 6 3.32 6 4 C8.64 4 11.28 4 14 4 C13.67 4.495 13.67 4.495 12 7 C3.65 4.689 3.65 4.689 0.938 1.812 C0.628 1.214 0.319 0.616 0 0 Z " fill="#67A75E" transform="translate(159,213)"/>
<path d="M0 0 C0.33 0 0.66 0 1 0 C1.027 2.646 1.047 5.292 1.062 7.938 C1.071 8.692 1.079 9.447 1.088 10.225 C1.097 12.15 1.052 14.075 1 16 C0 17 0 17 -2.562 17.062 C-3.367 17.042 -4.171 17.021 -5 17 C-5.33 16.34 -5.66 15.68 -6 15 C-4.02 14.67 -2.04 14.34 0 14 C0 9.38 0 4.76 0 0 Z " fill="#63A160" transform="translate(393,339)"/>
<path d="M0 0 C0.66 0 1.32 0 2 0 C2 4.29 2 8.58 2 13 C1.34 12.67 0.68 12.34 0 12 C-0.449 9.531 -0.449 9.531 -0.688 6.5 C-0.774 5.5 -0.86 4.499 -0.949 3.469 C-0.966 2.654 -0.983 1.839 -1 1 C-0.67 0.67 -0.34 0.34 0 0 Z " fill="#40A033" transform="translate(157,341)"/>
<path d="M0 0 C0.66 0.33 1.32 0.66 2 1 C3.155 0.959 4.31 0.918 5.5 0.875 C6.077 0.896 6.077 0.896 9 1 C9.66 1.99 10.32 2.98 11 4 C9.907 4.124 8.814 4.248 7.688 4.375 C4 5 4 5 1 7 C1 5.68 1 4.36 1 3 C0.34 2.34 -0.32 1.68 -1 1 C-0.67 0.67 -0.34 0.34 0 0 Z " fill="#5AA252" transform="translate(233,325)"/>
<path d="M0 0 C-0.35 8.35 -0.35 8.35 -3.062 11.062 C-3.702 11.372 -4.341 11.681 -5 12 C-4.424 9.614 -3.778 7.333 -3 5 C-3.938 2.812 -3.938 2.812 -5 1 C-3 0 -3 0 0 0 Z " fill="#3FA433" transform="translate(335,229)"/>
<path d="M0 0 C0.99 0.66 1.98 1.32 3 2 C2.845 2.248 2.845 2.248 2.062 3.5 C0.584 6.98 0.376 10.24 0 14 C-1.429 11.646 -2.087 10.52 -1.625 7.75 C-1.419 7.173 -1.212 6.595 -1 6 C-1.66 6 -2.32 6 -3 6 C-2 4 -1 2 0 0 Z " fill="#6EA564" transform="translate(320,149)"/>
<path d="M0 0 C1.062 1.812 1.062 1.812 2 4 C1.67 4.99 1.34 5.98 1 7 C1.66 7.33 2.32 7.66 3 8 C2.01 8.33 1.02 8.66 0 9 C-0.33 7.68 -0.66 6.36 -1 5 C-2.98 5.66 -4.96 6.32 -7 7 C-7 6.34 -7 5.68 -7 5 C-5.469 3.711 -5.469 3.711 -3.5 2.375 C-2.85 1.929 -2.201 1.483 -1.531 1.023 C-1.026 0.686 -0.521 0.348 0 0 Z " fill="#65A85E" transform="translate(277,323)"/>
<path d="M0 0 C1.65 0 3.3 0 5 0 C2.192 2.964 -0.183 5.445 -4 7 C-4 5.35 -4 3.7 -4 2 C-3.01 2 -2.02 2 -1 2 C-0.67 1.34 -0.34 0.68 0 0 Z " fill="#54994C" transform="translate(314,262)"/>
<path d="M0 0 C1.875 0.125 1.875 0.125 4 1 C5.75 3.562 5.75 3.562 7 6 C5.35 6.66 3.7 7.32 2 8 C2 7.01 2 6.02 2 5 C1.34 4.67 0.68 4.34 0 4 C-0.33 3.01 -0.66 2.02 -1 1 C-0.67 0.67 -0.34 0.34 0 0 Z " fill="#5CAD51" transform="translate(325,247)"/>
<path d="M0 0 C0.66 0.33 0.66 0.33 4 2 C4 2.66 4 3.32 4 4 C4.66 4 5.32 4 6 4 C7.354 6.709 7.065 9.009 7 12 C5 10 5 10 4.625 8 C4 6 4 6 1.938 4.75 C1.298 4.502 0.659 4.255 0 4 C0 2.68 0 1.36 0 0 Z " fill="#6EAC65" transform="translate(338,233)"/>
<path d="M0 0 C0.66 0 1.32 0 2 0 C1.67 1.32 1.34 2.64 1 4 C0.34 4 -0.32 4 -1 4 C-1.125 10.75 -1.125 10.75 0 13 C-0.66 13.66 -1.32 14.32 -2 15 C-3.513 12.597 -4.037 11.367 -3.75 8.5 C-3.042 6.141 -2.187 4.151 -1 2 C-0.67 1.34 -0.34 0.68 0 0 Z " fill="#6AA660" transform="translate(183,181)"/>
<path d="M0 0 C3.51 0.344 5.336 1.3 8.188 3.312 C4.834 4.43 2.591 4.163 -0.812 3.312 C-1.194 3.22 -1.194 3.22 -3.125 2.75 C-3.403 2.678 -3.403 2.678 -4.812 2.312 C-2.812 0.312 -2.812 0.312 0 0 Z " fill="#76AB6E" transform="translate(328.8125,148.6875)"/>
<path d="M0 0 C3.63 0 7.26 0 11 0 C11 0.66 11 1.32 11 2 C8.014 3.493 5.291 3.118 2 3 C1.34 2.67 0.68 2.34 0 2 C0 1.34 0 0.68 0 0 Z " fill="#439C37" transform="translate(233,129)"/>
<path d="M0 0 C2 2 2 2 2.012 4.129 C1.905 4.932 1.798 5.735 1.688 6.562 C1.588 7.368 1.489 8.174 1.387 9.004 C1 11 1 11 0 12 C-2 12.041 -4 12.043 -6 12 C-3 10 -3 10 -1 10 C-0.67 6.7 -0.34 3.4 0 0 Z " fill="#85B081" transform="translate(185,344)"/>
<path d="M0 0 C0.66 0.33 1.32 0.66 2 1 C1.67 1.99 1.34 2.98 1 4 C0.34 4 -0.32 4 -1 4 C-1.124 4.722 -1.248 5.444 -1.375 6.188 C-1.99 8.957 -2.884 11.397 -4 14 C-5.382 10.858 -4.912 9.761 -3.688 6.438 C-2 3 -2 3 0 0 Z " fill="#73BF65" transform="translate(113,327)"/>
<path d="M0 0 C-0.99 0.66 -1.98 1.32 -3 2 C-3 3.32 -3 4.64 -3 6 C-3.99 5.835 -3.99 5.835 -9 5 C-5.285 -1.586 -5.285 -1.586 0 0 Z " fill="#73B66D" transform="translate(249,283)"/>
<path d="M0 0 C0.825 0.33 0.825 0.33 5 2 C5 2.99 5 3.98 5 5 C2.125 5.125 2.125 5.125 -1 5 C-1.66 4.34 -2.32 3.68 -3 3 C-2.01 2.67 -1.02 2.34 0 2 C0 1.34 0 0.68 0 0 Z " fill="#409639" transform="translate(252,340)"/>
<path d="M0 0 C0 1.32 0 2.64 0 4 C-3 5 -3 5 -5.188 4.062 C-5.786 3.712 -6.384 3.361 -7 3 C-6.67 2.01 -6.34 1.02 -6 0 C-3.509 -1.245 -2.589 -0.777 0 0 Z " fill="#49A63A" transform="translate(343,322)"/>
<path d="M0 0 C1.333 0.333 2.667 0.667 4 1 C4.351 1.052 4.351 1.052 6.125 1.312 C8 2 8 2 9.25 4.062 C9.498 4.702 9.745 5.341 10 6 C6.382 5.671 4.443 5.373 1.625 3 C0 1 0 1 0 0 Z " fill="#61A156" transform="translate(266,294)"/>
<path d="M0 0 C0.33 0.66 0.66 1.32 1 2 C0.67 2.99 0.34 3.98 0 5 C0.99 5.33 1.98 5.66 3 6 C-1.75 9.875 -1.75 9.875 -4 11 C-4 10.01 -4 9.02 -4 8 C-3.01 8 -2.02 8 -1 8 C-1 6.68 -1 5.36 -1 4 C-1.99 3.67 -2.98 3.34 -4 3 C-2.68 2.01 -1.36 1.02 0 0 Z " fill="#73A96C" transform="translate(308,263)"/>
<path d="M0 0 C1.98 0 3.96 0 6 0 C6 1.32 6 2.64 6 4 C5.34 4.33 5.34 4.33 2 6 C1.34 4.02 0.68 2.04 0 0 Z " fill="#459E38" transform="translate(313,148)"/>
<path d="M0 0 C0.495 0.33 0.495 0.33 3 2 C4.32 2 5.64 2 7 2 C6.67 3.65 6.34 5.3 6 7 C5.34 7 4.68 7 4 7 C4 6.34 4 5.68 4 5 C2.35 4.67 0.7 4.34 -1 4 C-0.67 2.68 -0.34 1.36 0 0 Z " fill="#429F35" transform="translate(284,129)"/>
<path d="M0 0 C0.66 0.33 1.32 0.66 2 1 C1.125 5.75 1.125 5.75 0 8 C-4.875 6.25 -4.875 6.25 -6 4 C-5.381 3.897 -4.762 3.794 -4.125 3.688 C-2 3 -2 3 0 0 Z " fill="#76B76D" transform="translate(346,347)"/>
<path d="M0 0 C0 0.66 0 1.32 0 2 C-6.625 3.125 -6.625 3.125 -10 2 C-10 1.34 -10 0.68 -10 0 C-6.305 -0.95 -3.695 -0.95 0 0 Z " fill="#409733" transform="translate(138,349)"/>
<path d="M0 0 C0.66 0 1.32 0 2 0 C1.988 0.615 1.977 1.23 1.965 1.863 C1.956 2.672 1.947 3.48 1.938 4.312 C1.926 5.113 1.914 5.914 1.902 6.738 C2 9 2 9 3 12 C2.67 12.165 2.67 12.165 1 13 C1 12.01 1 11.02 1 10 C0.34 10 -0.32 10 -1 10 C-1.027 8.521 -1.046 7.042 -1.062 5.562 C-1.074 4.739 -1.086 3.915 -1.098 3.066 C-1 1 -1 1 0 0 Z " fill="#65B15F" transform="translate(230,333)"/>
<path d="M0 0 C1.32 0 2.64 0 4 0 C4 1.65 4 3.3 4 5 C2.35 5 0.7 5 -1 5 C-1.33 5.99 -1.66 6.98 -2 8 C-2 6.68 -2 5.36 -2 4 C-1.34 4 -0.68 4 0 4 C0 2.68 0 1.36 0 0 Z " fill="#51AE2E" transform="translate(111,337)"/>
<path d="M0 0 C0.33 0.66 0.66 1.32 1 2 C0.67 2.165 0.67 2.165 -1 3 C-1.165 3.66 -1.33 4.32 -1.5 5 C-1.665 5.66 -1.83 6.32 -2 7 C-2.33 7.165 -2.33 7.165 -4 8 C-4.407 10.322 -4.744 12.657 -5 15 C-5.33 15 -5.66 15 -6 15 C-6.42 8.909 -6.057 5.892 -2 1 C-1.34 0.67 -0.68 0.34 0 0 Z " fill="#7EAE74" transform="translate(272,185)"/>
<path d="M0 0 C3.075 0.659 5.077 1.539 8 3 C5.525 3.495 5.525 3.495 -7 6 C-7 5.34 -7 4.68 -7 4 C-4.36 3.67 -1.72 3.34 1 3 C0.67 2.01 0.34 1.02 0 0 Z " fill="#68AA5F" transform="translate(252,126)"/>
<path d="M0 0 C0.66 0 1.32 0 2 0 C2 1.32 2 2.64 2 4 C2.66 4 3.32 4 4 4 C4.33 5.65 4.66 7.3 5 9 C4.175 8.67 4.175 8.67 0 7 C0 4.69 0 2.38 0 0 Z " fill="#43A433" transform="translate(295,341)"/>
<path d="M0 0 C1.32 0.33 2.64 0.66 4 1 C4 2.98 4 4.96 4 7 C3.67 6.34 3.34 5.68 3 5 C0.438 4.375 0.438 4.375 -2 4 C-1.34 2.68 -0.68 1.36 0 0 Z " fill="#3E9A30" transform="translate(252,331)"/>
<path d="M0 0 C0.309 0.093 0.309 0.093 1.875 0.562 C4 1 4 1 6 0 C6 1.65 6 3.3 6 5 C4.344 5.382 2.675 5.714 1 6 C0 5 0 5 -0.062 2.438 C-0.042 1.633 -0.021 0.829 0 0 Z " fill="#3E9D33" transform="translate(176,327)"/>
<path d="M0 0 C0.485 0.01 0.485 0.01 2.938 0.062 C3.267 0.723 3.598 1.382 3.938 2.062 C2.288 2.062 0.637 2.062 -1.062 2.062 C-1.392 3.712 -1.723 5.363 -2.062 7.062 C-2.723 6.733 -3.382 6.402 -4.062 6.062 C-4.105 4.396 -4.103 2.729 -4.062 1.062 C-3.062 0.062 -3.062 0.062 0 0 Z " fill="#73AF6F" transform="translate(341.0625,312.9375)"/>
<path d="M0 0 C0 2.97 0 5.94 0 9 C-1.32 8.34 -2.64 7.68 -4 7 C-3.67 6.01 -3.34 5.02 -3 4 C-3.33 3.01 -3.66 2.02 -4 1 C-1 0 -1 0 0 0 Z " fill="#41A431" transform="translate(284,284)"/>
<path d="M0 0 C0 0.66 0 1.32 0 2 C-4.12 3.292 -7.668 4.263 -12 4 C-7.969 0.803 -5.143 -0.139 0 0 Z " fill="#72B469" transform="translate(174,187)"/>
<path d="M0 0 C1.884 3.265 2.493 6.281 3 10 C1.68 9.34 0.36 8.68 -1 8 C-0.67 5.36 -0.34 2.72 0 0 Z " fill="#559E4D" transform="translate(269,330)"/>
<path d="M0 0 C0.66 0.33 1.32 0.66 2 1 C1.67 2.65 1.34 4.3 1 6 C-0.32 6.33 -1.64 6.66 -3 7 C-2.625 4.062 -2.625 4.062 -2 1 C-1.34 0.67 -0.68 0.34 0 0 Z " fill="#7AB475" transform="translate(284,323)"/>
<path d="M0 0 C1.98 0 3.96 0 6 0 C6 0.66 6 1.32 6 2 C5.34 2 4.68 2 4 2 C4 2.99 4 3.98 4 5 C3.175 4.67 3.175 4.67 -1 3 C-0.67 2.01 -0.34 1.02 0 0 Z " fill="#419935" transform="translate(118,325)"/>
<path d="M0 0 C0.66 1.32 1.32 2.64 2 4 C1.01 4.99 0.02 5.98 -1 7 C-2.32 6.34 -3.64 5.68 -5 5 C-5 4.34 -5 3.68 -5 3 C-3.35 2.67 -1.7 2.34 0 2 C0 1.34 0 0.68 0 0 Z " fill="#5DAB53" transform="translate(190,243)"/>
<path d="M0 0 C1.32 0.99 2.64 1.98 4 3 C3.67 3.99 3.34 4.98 3 6 C1.35 6 -0.3 6 -2 6 C-2 4.68 -2 3.36 -2 2 C-1.34 2 -0.68 2 0 2 C0 1.34 0 0.68 0 0 Z " fill="#449E36" transform="translate(303,139)"/>
<path d="M0 0 C1.32 0.66 2.64 1.32 4 2 C3.67 2.66 3.34 3.32 3 4 C2.34 4 1.68 4 1 4 C1 4.99 1 5.98 1 7 C0.175 6.67 0.175 6.67 -4 5 C-2.68 4.67 -1.36 4.34 0 4 C0 2.68 0 1.36 0 0 Z " fill="#83B57C" transform="translate(300,137)"/>
<path d="M0 0 C0.99 0.165 0.99 0.165 6 1 C6 1.66 6 2.32 6 3 C6.99 3.165 6.99 3.165 12 4 C12 4.99 12 5.98 12 7 C7.692 5.434 3.938 3.317 0 1 C0 0.67 0 0.34 0 0 Z " fill="#709F69" transform="translate(282,133)"/>
<path d="M0 0 C0.33 0.99 0.66 1.98 1 3 C-0.375 4.5 -0.375 4.5 -2 6 C-2.66 6 -3.32 6 -4 6 C-4.33 7.32 -4.66 8.64 -5 10 C-5.66 9.67 -6.32 9.34 -7 9 C-2.857 2.571 -2.857 2.571 0 0 Z " fill="#6CA562" transform="translate(367,325)"/>
<path d="M0 0 C0.33 0 0.66 0 1 0 C0.67 2.31 0.34 4.62 0 7 C-0.66 7 -1.32 7 -2 7 C-2 6.34 -2 5.68 -2 5 C-3.32 5.33 -4.64 5.66 -6 6 C-5.67 5.01 -5.34 4.02 -5 3 C-4.01 3 -3.02 3 -2 3 C-1.34 2.01 -0.68 1.02 0 0 Z " fill="#429537" transform="translate(298,272)"/>
<path d="M0 0 C0.99 0.33 1.98 0.66 3 1 C3 1.99 3 2.98 3 4 C3.66 4.33 4.32 4.66 5 5 C4.67 7.31 4.34 9.62 4 12 C3.01 12 2.02 12 1 12 C1.33 11.67 1.66 11.34 2 11 C1.622 7.095 1.239 3.718 0 0 Z " fill="#7EB269" transform="translate(188,252)"/>
<path d="M0 0 C0.66 0 1.32 0 2 0 C2.66 1.98 3.32 3.96 4 6 C1.062 5.625 1.062 5.625 -2 5 C-2.33 4.34 -2.66 3.68 -3 3 C-2.34 3 -1.68 3 -1 3 C-0.67 2.01 -0.34 1.02 0 0 Z " fill="#4AA73D" transform="translate(190,247)"/>
<path d="M0 0 C-2.551 2.354 -3.71 2.983 -7.25 3.188 C-8.158 3.126 -9.065 3.064 -10 3 C-9.67 2.01 -9.34 1.02 -9 0 C-3.375 -1.125 -3.375 -1.125 0 0 Z " fill="#67A55F" transform="translate(287,205)"/>
<path d="M0 0 C0.33 0 0.66 0 1 0 C1 2.31 1 4.62 1 7 C1.66 7 2.32 7 3 7 C3.33 7.99 3.66 8.98 4 10 C3.34 10.66 2.68 11.32 2 12 C-0.135 8.175 -1.506 5.424 -1 1 C-0.67 0.67 -0.34 0.34 0 0 Z " fill="#81B87B" transform="translate(156,201)"/>
<path d="M0 0 C0.33 0.66 0.66 1.32 1 2 C1.66 2.33 2.32 2.66 3 3 C3 4.65 3 6.3 3 8 C2.67 7.34 2.34 6.68 2 6 C-0.062 4.875 -0.062 4.875 -2 4 C-2 3.01 -2 2.02 -2 1 C-1.34 0.67 -0.68 0.34 0 0 Z " fill="#76B471" transform="translate(322,162)"/>
<path d="M0 0 C2.31 0 4.62 0 7 0 C7.33 0.99 7.66 1.98 8 3 C7.34 3 6.68 3 6 3 C5.67 3.66 5.34 4.32 5 5 C3.35 3.35 1.7 1.7 0 0 Z " fill="#6AB061" transform="translate(191,282)"/>
<path d="M0 0 C3.096 3.509 4.742 6.492 6 11 C3.176 9.965 2.176 9.334 0.75 6.625 C0 4 0 4 0 0 Z " fill="#74A96C" transform="translate(192,247)"/>
<path d="M0 0 C0.99 0.33 1.98 0.66 3 1 C2.67 2.65 2.34 4.3 2 6 C1.01 6 0.02 6 -1 6 C-1.33 4.68 -1.66 3.36 -2 2 C-1.34 2 -0.68 2 0 2 C0 1.34 0 0.68 0 0 Z " fill="#419F36" transform="translate(362,333)"/>
<path d="M0 0 C2.125 0.938 2.125 0.938 4 2 C3.34 3.65 2.68 5.3 2 7 C1.34 7 0.68 7 0 7 C0.33 5.35 0.66 3.7 1 2 C0.01 1.67 -0.98 1.34 -2 1 C-1.34 0.67 -0.68 0.34 0 0 Z " fill="#3B9F2F" transform="translate(157,330)"/>
<path d="M0 0 C0.66 0.33 1.32 0.66 2 1 C1.67 2.65 1.34 4.3 1 6 C0.175 5.67 0.175 5.67 -4 4 C-4 3.01 -4 2.02 -4 1 C-2.68 1.33 -1.36 1.66 0 2 C0 1.34 0 0.68 0 0 Z " fill="#389F2B" transform="translate(388,327)"/>
<path d="M0 0 C-2.688 2.252 -4.646 3.882 -8 5 C-8 4.01 -8 3.02 -8 2 C-3.719 -1.24 -3.719 -1.24 0 0 Z " fill="#66B363" transform="translate(216,282)"/>
<path d="M0 0 C0.66 0 1.32 0 2 0 C0.909 3.775 0.092 6.47 -3 9 C-3 7.35 -3 5.7 -3 4 C-2.34 4 -1.68 4 -1 4 C-0.67 2.68 -0.34 1.36 0 0 Z " fill="#63A05C" transform="translate(193,162)"/>
<path d="M0 0 C2.64 0 5.28 0 8 0 C8 0.33 8 0.66 8 1 C4.352 2.273 0.806 3.328 -3 4 C-2.34 3.67 -1.68 3.34 -1 3 C-0.67 2.01 -0.34 1.02 0 0 Z " fill="#429337" transform="translate(235,350)"/>
<path d="M0 0 C2.97 0.33 5.94 0.66 9 1 C9 1.66 9 2.32 9 3 C6.188 3.188 6.188 3.188 3 3 C2.01 2.01 1.02 1.02 0 0 Z " fill="#7BB467" transform="translate(306,322)"/>
<path d="M0 0 C-2.528 2.799 -4.204 4.458 -8 5 C-7.625 3.062 -7.625 3.062 -7 1 C-4.537 -0.231 -2.72 -0.072 0 0 Z " fill="#68AA61" transform="translate(285,295)"/>
<path d="M0 0 C1.65 0.33 3.3 0.66 5 1 C4.34 2.32 3.68 3.64 3 5 C1.68 5 0.36 5 -1 5 C-0.67 3.35 -0.34 1.7 0 0 Z " fill="#3CA131" transform="translate(268,285)"/>
<path d="M0 0 C0 2.31 0 4.62 0 7 C-0.99 7 -1.98 7 -3 7 C-3 5.02 -3 3.04 -3 1 C-1 0 -1 0 0 0 Z " fill="#449B32" transform="translate(183,229)"/>
<path d="M0 0 C0.33 0 0.66 0 1 0 C1 2.64 1 5.28 1 8 C0.67 8.165 0.67 8.165 -1 9 C-1.66 8.34 -2.32 7.68 -3 7 C-2.01 4.69 -1.02 2.38 0 0 Z " fill="#60AA59" transform="translate(181,174)"/>
<path d="M0 0 C0.66 0 1.32 0 2 0 C1.34 1.98 0.68 3.96 0 6 C-0.66 6 -1.32 6 -2 6 C-2.33 6.99 -2.66 7.98 -3 9 C-2.502 5.265 -2.125 3.188 0 0 Z " fill="#55974A" transform="translate(195,132)"/>
<path d="M0 0 C0.825 0.33 0.825 0.33 5 2 C5 3.32 5 4.64 5 6 C4.01 6 3.02 6 2 6 C1.34 4.02 0.68 2.04 0 0 Z " fill="#5A9B51" transform="translate(225,345)"/>
<path d="M0 0 C0.66 0.33 1.32 0.66 2 1 C2 2.98 2 4.96 2 7 C0.68 7.33 -0.64 7.66 -2 8 C-1.34 5.36 -0.68 2.72 0 0 Z " fill="#62AB5D" transform="translate(387,337)"/>
<path d="M0 0 C2.438 0.375 2.438 0.375 5 1 C5.33 1.66 5.66 2.32 6 3 C8.562 3.625 8.562 3.625 11 4 C11 4.33 11 4.66 11 5 C8.312 5.312 8.312 5.312 5 5 C2.125 2.5 2.125 2.5 0 0 Z " fill="#7CB079" transform="translate(261,130)"/>
<path d="M0 0 C0.33 0.66 0.66 1.32 1 2 C-0.062 3.5 -0.062 3.5 -2 5 C-5.688 5.188 -5.688 5.188 -9 5 C-9 4.67 -9 4.34 -9 4 C-8.536 3.856 -8.536 3.856 -6.188 3.125 C-3 2 -3 2 0 0 Z " fill="#61925D" transform="translate(384,345)"/>
<path d="M0 0 C1.32 0 2.64 0 4 0 C2.25 3.875 2.25 3.875 0 5 C-0.66 4.34 -1.32 3.68 -2 3 C-1.34 2.01 -0.68 1.02 0 0 Z " fill="#419536" transform="translate(342,347)"/>
<path d="M0 0 C0.33 0.99 0.66 1.98 1 3 C0.67 3.66 0.34 4.32 0 5 C-0.66 5 -1.32 5 -2 5 C-2.33 5.66 -2.66 6.32 -3 7 C-3.99 6.34 -4.98 5.68 -6 5 C-5.196 4.546 -4.391 4.092 -3.562 3.625 C-1 2 -1 2 0 0 Z " fill="#6EB26A" transform="translate(135,343)"/>
<path d="M0 0 C0.66 0 1.32 0 2 0 C0.707 2.884 -0.659 4.872 -3 7 C-3 5.02 -3 3.04 -3 1 C-2.01 1.33 -1.02 1.66 0 2 C0 1.34 0 0.68 0 0 Z " fill="#75AF71" transform="translate(255,345)"/>
<path d="M0 0 C2.169 0.506 4 1 6 2 C5.67 2.99 5.34 3.98 5 5 C3.062 4.188 3.062 4.188 1 3 C0.67 2.01 0.34 1.02 0 0 Z " fill="#64A95B" transform="translate(175,324)"/>
<path d="M0 0 C0.66 0.66 1.32 1.32 2 2 C1.01 3.98 0.02 5.96 -1 8 C-1.66 6.68 -2.32 5.36 -3 4 C-2.01 2.68 -1.02 1.36 0 0 Z " fill="#4EA942" transform="translate(175,214)"/>
<path d="M0 0 C0.66 0.165 0.66 0.165 4 1 C3.67 1.99 3.34 2.98 3 4 C1.68 4 0.36 4 -1 4 C-0.67 2.68 -0.34 1.36 0 0 Z " fill="#3BA42C" transform="translate(197,133)"/>
</svg>
